<svg id="svg" version="1.1" xmlns="http://www.w3.org/2000/svg" xmlns:xlink="http://www.w3.org/1999/xlink" width="400" height="400" viewBox="0, 0, 400,400">
    <g id="svgg">
        <path id="path0" d="M187.479 0.272 C 187.358 0.468,186.419 0.580,185.393 0.520 C 184.367 0.460,183.162 0.606,182.715 0.845 C 182.127 1.160,181.978 1.159,182.175 0.840 C 182.329 0.592,182.175 0.400,181.824 0.400 C 181.481 0.400,181.245 0.598,181.300 0.839 C 181.363 1.116,180.587 1.283,179.200 1.289 C 177.990 1.295,176.892 1.469,176.761 1.675 C 176.629 1.881,175.961 2.066,175.275 2.086 C 174.589 2.105,174.122 2.274,174.237 2.460 C 174.353 2.647,173.706 2.800,172.800 2.800 C 171.704 2.800,171.244 2.947,171.425 3.240 C 171.605 3.531,171.393 3.518,170.800 3.200 C 170.307 2.936,170.014 2.899,170.149 3.118 C 170.285 3.337,170.126 3.619,169.798 3.746 C 169.469 3.872,169.200 3.817,169.200 3.625 C 169.200 3.178,167.487 3.598,167.136 4.131 C 166.990 4.352,166.225 4.508,165.436 4.478 C 164.632 4.448,164.000 4.617,164.000 4.861 C 164.000 5.133,163.744 5.090,163.323 4.749 C 162.916 4.419,162.761 4.392,162.934 4.680 C 163.296 5.282,161.714 6.197,160.551 6.058 C 160.082 6.002,159.597 6.231,159.466 6.571 C 159.297 7.014,158.901 7.120,158.055 6.951 C 157.092 6.758,156.831 6.872,156.607 7.579 C 156.406 8.210,156.199 8.331,155.837 8.031 C 155.492 7.745,155.179 7.769,154.812 8.110 C 154.393 8.498,154.342 8.495,154.567 8.097 C 154.791 7.699,154.639 7.691,153.838 8.055 C 153.281 8.309,152.924 8.677,153.045 8.872 C 153.165 9.067,152.813 9.146,152.263 9.046 C 151.617 8.929,151.180 9.075,151.033 9.458 C 150.902 9.801,150.425 9.998,149.903 9.926 C 149.303 9.842,149.039 9.985,149.117 10.351 C 149.196 10.724,148.976 10.835,148.436 10.694 C 147.997 10.579,147.575 10.674,147.498 10.906 C 147.421 11.137,146.917 11.390,146.379 11.467 C 145.840 11.544,145.101 11.965,144.735 12.404 C 144.369 12.843,143.808 13.101,143.487 12.978 C 143.159 12.852,142.794 13.039,142.654 13.402 C 142.518 13.759,142.224 13.939,142.003 13.802 C 141.781 13.665,141.600 13.822,141.600 14.151 C 141.600 14.613,141.258 14.702,140.100 14.542 C 138.957 14.383,138.743 14.437,139.200 14.767 C 139.733 15.152,139.733 15.243,139.200 15.587 C 138.848 15.815,138.548 15.824,138.474 15.610 C 138.405 15.409,138.075 15.350,137.741 15.478 C 137.289 15.651,137.258 15.788,137.619 16.012 C 137.952 16.218,137.828 16.401,137.224 16.592 C 136.737 16.747,136.430 17.100,136.537 17.381 C 136.671 17.729,136.332 17.884,135.466 17.870 C 134.564 17.856,134.238 18.016,134.333 18.425 C 134.407 18.741,134.331 18.865,134.166 18.699 C 134.000 18.534,133.535 18.697,133.132 19.061 C 132.730 19.426,132.400 19.593,132.400 19.433 C 132.400 19.274,132.108 19.435,131.752 19.791 C 131.395 20.148,130.582 20.544,129.943 20.671 C 129.305 20.799,128.688 21.058,128.571 21.247 C 128.454 21.436,128.683 21.477,129.079 21.339 C 129.731 21.111,129.741 21.149,129.189 21.740 C 128.852 22.100,128.100 22.434,127.517 22.482 C 126.935 22.530,126.550 22.719,126.663 22.902 C 127.013 23.468,125.979 24.366,125.271 24.112 C 124.902 23.981,124.726 24.013,124.881 24.184 C 125.204 24.542,124.268 25.600,123.629 25.600 C 123.393 25.600,123.200 25.791,123.200 26.024 C 123.200 26.257,123.063 26.363,122.896 26.259 C 122.412 25.960,121.092 27.102,121.381 27.569 C 121.533 27.815,121.410 27.902,121.087 27.778 C 120.765 27.655,119.998 28.189,119.266 29.047 C 118.266 30.218,117.999 30.369,117.994 29.764 C 117.989 29.144,117.918 29.110,117.620 29.581 C 117.418 29.900,117.329 30.285,117.422 30.436 C 117.515 30.586,117.289 30.955,116.919 31.255 C 116.456 31.630,116.340 31.644,116.547 31.300 C 116.712 31.025,116.657 30.800,116.424 30.800 C 116.191 30.800,116.000 31.244,116.000 31.787 C 116.000 32.544,115.844 32.715,115.334 32.519 C 114.907 32.355,114.766 32.421,114.940 32.703 C 115.092 32.949,114.856 33.255,114.406 33.398 C 113.963 33.539,113.600 33.822,113.600 34.027 C 113.600 34.232,113.383 34.355,113.119 34.300 C 112.854 34.245,112.629 34.560,112.619 35.000 C 112.607 35.518,112.282 35.845,111.700 35.928 C 111.172 36.003,110.800 36.335,110.800 36.732 C 110.800 37.103,110.440 37.632,110.000 37.907 C 109.560 38.182,109.200 38.675,109.200 39.003 C 109.200 39.332,108.908 39.600,108.551 39.600 C 107.990 39.600,107.977 39.505,108.451 38.900 C 108.941 38.275,108.930 38.255,108.339 38.716 C 107.976 39.000,107.567 39.675,107.432 40.216 C 107.296 40.757,106.908 41.200,106.569 41.200 C 106.230 41.200,106.054 41.364,106.178 41.565 C 106.303 41.766,105.908 42.319,105.302 42.795 C 104.696 43.270,104.423 43.547,104.695 43.409 C 105.026 43.242,105.109 43.372,104.944 43.802 C 104.808 44.156,104.479 44.362,104.212 44.260 C 103.946 44.158,103.474 44.235,103.164 44.431 C 102.723 44.710,102.775 44.790,103.400 44.800 C 104.042 44.810,104.086 44.885,103.619 45.180 C 103.300 45.382,102.907 45.466,102.747 45.367 C 102.586 45.268,102.325 45.398,102.166 45.655 C 101.995 45.931,102.049 46.017,102.296 45.864 C 102.527 45.721,102.823 45.883,102.954 46.223 C 103.089 46.577,103.022 46.737,102.795 46.597 C 102.578 46.463,102.400 46.565,102.400 46.825 C 102.400 47.184,102.266 47.187,101.842 46.835 C 101.414 46.480,101.289 46.491,101.305 46.886 C 101.361 48.264,101.164 48.761,100.640 48.560 C 100.280 48.422,100.101 48.597,100.140 49.049 C 100.173 49.436,99.823 49.946,99.363 50.182 C 98.896 50.421,98.572 50.929,98.631 51.328 C 98.720 51.939,98.641 51.968,98.091 51.522 C 97.613 51.135,97.524 51.129,97.747 51.500 C 97.912 51.775,97.873 52.000,97.661 52.000 C 97.449 52.000,97.370 52.363,97.486 52.806 C 97.642 53.402,97.541 53.552,97.100 53.383 C 96.759 53.252,96.397 53.430,96.256 53.798 C 96.091 54.228,96.174 54.358,96.505 54.190 C 96.777 54.052,96.591 54.300,96.091 54.741 C 95.590 55.182,95.230 55.781,95.291 56.072 C 95.352 56.366,95.087 56.575,94.692 56.543 C 94.303 56.512,94.010 56.692,94.040 56.943 C 94.188 58.173,94.003 58.624,93.606 58.000 C 93.244 57.432,92.466 59.616,92.715 60.500 C 92.762 60.665,92.601 60.800,92.357 60.800 C 92.114 60.800,92.017 61.067,92.142 61.394 C 92.276 61.742,92.048 62.160,91.590 62.405 C 91.161 62.635,90.694 63.282,90.553 63.843 C 90.413 64.405,89.915 65.018,89.449 65.207 C 88.783 65.475,88.748 65.555,89.287 65.575 C 89.728 65.591,89.893 65.814,89.746 66.198 C 89.619 66.526,89.377 66.709,89.207 66.604 C 89.037 66.499,88.791 66.946,88.660 67.598 C 88.474 68.528,88.270 68.726,87.712 68.517 C 87.065 68.275,87.055 68.319,87.600 69.002 C 87.930 69.415,88.002 69.635,87.760 69.490 C 87.339 69.238,86.503 70.391,86.218 71.617 C 85.832 73.273,85.468 73.966,85.103 73.740 C 84.879 73.602,84.779 73.737,84.880 74.041 C 84.981 74.344,84.836 74.822,84.556 75.101 C 84.276 75.381,84.120 75.984,84.208 76.441 C 84.321 77.026,84.203 77.210,83.812 77.060 C 83.283 76.857,83.252 78.185,83.773 78.707 C 83.883 78.816,83.779 79.266,83.543 79.707 C 83.193 80.360,83.043 80.405,82.731 79.954 C 82.463 79.567,82.430 79.690,82.620 80.361 C 82.840 81.138,82.769 81.274,82.246 81.073 C 81.486 80.781,81.397 81.237,82.080 81.920 C 82.453 82.293,82.447 82.400,82.053 82.400 C 81.718 82.400,81.638 82.689,81.816 83.250 C 81.997 83.822,81.941 84.011,81.643 83.826 C 81.399 83.676,81.200 83.774,81.200 84.045 C 81.200 84.316,80.885 84.908,80.500 85.362 C 79.983 85.971,79.965 86.059,80.433 85.699 C 80.945 85.306,81.067 85.326,81.067 85.806 C 81.067 86.133,80.832 86.400,80.546 86.400 C 80.247 86.400,80.123 86.656,80.256 87.001 C 80.594 87.883,80.055 89.681,79.545 89.366 C 79.261 89.190,79.207 89.392,79.387 89.960 C 79.569 90.531,79.500 90.783,79.183 90.710 C 78.921 90.650,78.653 90.915,78.589 91.300 C 78.524 91.685,78.635 92.000,78.835 92.000 C 79.036 92.000,79.200 92.191,79.200 92.424 C 79.200 92.657,79.022 92.737,78.805 92.603 C 78.586 92.467,78.507 92.612,78.628 92.928 C 78.748 93.241,78.553 93.790,78.194 94.148 C 77.592 94.751,77.598 94.801,78.271 94.813 C 78.925 94.824,78.935 94.875,78.365 95.313 C 78.016 95.581,77.806 96.025,77.898 96.300 C 77.991 96.575,77.782 96.909,77.433 97.043 C 77.085 97.176,76.800 97.441,76.800 97.630 C 76.800 97.820,77.070 97.871,77.400 97.745 C 77.730 97.618,78.000 97.714,78.000 97.957 C 78.000 98.201,77.814 98.400,77.587 98.400 C 77.361 98.400,77.216 99.008,77.266 99.751 C 77.316 100.493,77.081 101.528,76.745 102.051 C 76.389 102.603,76.200 103.561,76.293 104.340 C 76.407 105.289,76.317 105.596,75.987 105.392 C 75.634 105.174,75.630 105.310,75.974 105.952 C 76.242 106.452,76.270 106.800,76.041 106.800 C 75.381 106.800,75.199 108.110,75.551 110.327 C 75.814 111.984,75.763 112.580,75.316 113.027 C 74.818 113.524,74.829 113.600,75.398 113.600 C 75.978 113.600,76.026 114.071,75.814 117.700 C 75.350 125.653,75.720 138.649,76.431 139.380 C 76.634 139.589,76.800 140.883,76.800 142.256 C 76.800 143.629,76.980 144.864,77.200 145.000 C 77.420 145.136,77.600 146.126,77.600 147.200 C 77.600 148.274,77.780 149.264,78.000 149.400 C 78.220 149.536,78.400 150.346,78.400 151.200 C 78.400 152.054,78.580 152.864,78.800 153.000 C 79.020 153.136,79.200 153.856,79.200 154.600 C 79.200 155.344,79.380 156.064,79.600 156.200 C 79.820 156.336,80.000 156.966,80.000 157.600 C 80.000 158.234,80.180 158.864,80.400 159.000 C 80.620 159.136,80.800 159.777,80.800 160.424 C 80.800 161.071,80.980 161.600,81.200 161.600 C 81.420 161.600,81.600 162.052,81.600 162.605 C 81.600 163.158,81.780 163.968,82.000 164.405 C 82.220 164.842,82.580 165.558,82.800 165.995 C 83.020 166.432,83.200 167.064,83.200 167.400 C 83.200 167.736,83.380 168.368,83.600 168.805 C 83.820 169.242,84.180 169.958,84.400 170.395 C 84.620 170.832,84.800 171.462,84.800 171.795 C 84.800 172.128,84.980 172.400,85.200 172.400 C 85.420 172.400,85.600 172.672,85.600 173.005 C 85.600 173.338,85.769 173.923,85.975 174.305 C 86.182 174.687,87.554 177.520,89.024 180.600 C 90.494 183.680,91.855 186.260,92.049 186.333 C 92.242 186.407,92.400 186.729,92.400 187.050 C 92.400 187.371,92.760 188.020,93.200 188.492 C 93.640 188.964,94.000 189.587,94.000 189.875 C 94.000 190.164,94.180 190.400,94.400 190.400 C 94.620 190.400,94.800 190.694,94.800 191.053 C 94.800 191.412,95.116 191.997,95.503 192.353 C 95.889 192.709,96.460 193.495,96.770 194.100 C 97.081 194.705,97.485 195.200,97.668 195.200 C 97.850 195.200,98.000 195.470,98.000 195.800 C 98.000 196.130,98.141 196.400,98.314 196.400 C 98.486 196.400,98.925 196.904,99.289 197.519 C 100.666 199.850,104.914 204.349,106.777 205.450 C 107.450 205.847,108.000 206.314,108.000 206.486 C 108.000 206.659,108.349 206.800,108.776 206.800 C 109.203 206.800,109.664 206.980,109.800 207.200 C 109.936 207.420,110.566 207.600,111.200 207.600 C 111.834 207.600,112.464 207.780,112.600 208.000 C 112.922 208.521,117.478 208.521,117.800 208.000 C 117.936 207.780,118.361 207.600,118.744 207.600 C 119.619 207.600,121.593 206.701,121.597 206.300 C 121.599 206.135,121.876 206.000,122.213 206.000 C 124.262 206.000,127.301 200.728,127.530 196.774 C 127.721 193.474,125.622 187.200,124.326 187.200 C 124.147 187.200,124.000 186.930,124.000 186.600 C 124.000 186.270,123.820 186.000,123.600 186.000 C 123.380 186.000,123.200 185.818,123.200 185.596 C 123.200 185.374,122.660 184.628,122.000 183.937 C 121.340 183.246,120.800 182.478,120.800 182.229 C 120.800 181.980,120.440 181.517,120.000 181.200 C 119.560 180.883,119.200 180.343,119.200 180.000 C 119.200 179.657,118.840 179.117,118.400 178.800 C 117.960 178.483,117.600 177.943,117.600 177.600 C 117.600 177.257,117.240 176.717,116.800 176.400 C 116.360 176.083,116.000 175.503,116.000 175.112 C 116.000 174.720,115.865 174.399,115.700 174.397 C 115.535 174.395,115.201 173.990,114.959 173.497 C 114.716 173.004,113.931 171.520,113.215 170.200 C 111.616 167.254,109.509 162.346,108.773 159.856 C 108.472 158.835,108.085 158.000,107.913 158.000 C 107.741 158.000,107.600 157.460,107.600 156.800 C 107.600 156.140,107.420 155.600,107.200 155.600 C 106.980 155.600,106.800 155.071,106.800 154.424 C 106.800 153.777,106.620 153.136,106.400 153.000 C 106.180 152.864,106.000 152.223,106.000 151.576 C 106.000 150.929,105.820 150.400,105.600 150.400 C 105.380 150.400,105.200 149.680,105.200 148.800 C 105.200 147.920,105.020 147.200,104.800 147.200 C 104.580 147.200,104.400 146.300,104.400 145.200 C 104.400 144.100,104.220 143.200,104.000 143.200 C 103.778 143.200,103.600 142.133,103.600 140.800 C 103.600 139.467,103.422 138.400,103.200 138.400 C 102.959 138.400,102.800 136.741,102.800 134.224 C 102.800 131.871,102.625 129.939,102.400 129.800 C 102.168 129.657,102.000 127.470,102.000 124.600 C 102.000 121.730,102.168 119.543,102.400 119.400 C 102.621 119.264,102.800 117.470,102.800 115.400 C 102.800 113.330,102.979 111.536,103.200 111.400 C 103.420 111.264,103.600 110.184,103.600 109.000 C 103.600 107.816,103.780 106.736,104.000 106.600 C 104.220 106.464,104.400 105.553,104.400 104.576 C 104.400 103.599,104.580 102.800,104.800 102.800 C 105.020 102.800,105.200 102.080,105.200 101.200 C 105.200 100.320,105.380 99.600,105.600 99.600 C 105.820 99.600,106.000 98.970,106.000 98.200 C 106.000 97.430,106.180 96.800,106.400 96.800 C 106.620 96.800,106.800 96.260,106.800 95.600 C 106.800 94.940,106.980 94.400,107.200 94.400 C 107.420 94.400,107.600 93.860,107.600 93.200 C 107.600 92.540,107.780 92.000,108.000 92.000 C 108.220 92.000,108.400 91.681,108.400 91.291 C 108.400 90.104,112.422 80.277,113.185 79.600 C 113.309 79.490,113.842 78.545,114.368 77.500 C 114.895 76.455,115.477 75.600,115.663 75.600 C 115.848 75.600,116.000 75.240,116.000 74.800 C 116.000 74.360,116.158 74.000,116.351 74.000 C 116.545 74.000,116.927 73.460,117.200 72.800 C 117.473 72.140,117.833 71.600,118.000 71.600 C 118.167 71.600,118.527 71.060,118.800 70.400 C 119.073 69.740,119.425 69.200,119.581 69.200 C 119.737 69.200,120.120 68.705,120.432 68.100 C 120.745 67.495,121.360 66.618,121.800 66.150 C 123.063 64.809,124.000 63.613,124.000 63.342 C 124.000 63.206,124.316 62.803,124.702 62.447 C 125.088 62.091,126.073 60.966,126.891 59.946 C 128.934 57.399,132.693 53.622,134.609 52.191 C 135.484 51.537,136.650 50.545,137.200 49.986 C 137.750 49.427,138.830 48.535,139.600 48.004 C 140.370 47.473,141.090 46.924,141.200 46.785 C 141.310 46.645,142.930 45.508,144.800 44.259 C 146.670 43.009,148.417 41.810,148.683 41.593 C 148.949 41.377,149.444 41.200,149.783 41.200 C 150.122 41.200,150.400 41.020,150.400 40.800 C 150.400 40.580,150.636 40.400,150.925 40.400 C 151.213 40.400,151.836 40.040,152.308 39.600 C 152.780 39.160,153.444 38.800,153.783 38.800 C 154.122 38.800,154.400 38.620,154.400 38.400 C 154.400 38.180,154.634 38.000,154.920 38.000 C 155.656 38.000,157.593 37.059,157.597 36.700 C 157.599 36.535,157.949 36.400,158.376 36.400 C 158.803 36.400,159.264 36.220,159.400 36.000 C 159.536 35.780,159.997 35.600,160.424 35.600 C 160.851 35.600,161.200 35.420,161.200 35.200 C 161.200 34.980,161.472 34.800,161.805 34.800 C 162.138 34.800,162.723 34.641,163.105 34.447 C 163.487 34.252,164.340 33.871,165.000 33.600 C 165.660 33.329,166.513 32.948,166.895 32.753 C 167.277 32.559,167.941 32.400,168.371 32.400 C 168.801 32.400,169.264 32.220,169.400 32.000 C 169.536 31.780,170.166 31.600,170.800 31.600 C 171.434 31.600,172.064 31.420,172.200 31.200 C 172.336 30.980,172.977 30.800,173.624 30.800 C 174.271 30.800,174.800 30.620,174.800 30.400 C 174.800 30.180,175.484 30.000,176.320 30.000 C 177.156 30.000,178.011 29.838,178.220 29.641 C 178.429 29.444,179.410 29.169,180.400 29.031 C 181.390 28.893,183.370 28.599,184.800 28.377 C 193.170 27.079,207.440 27.092,215.600 28.405 C 217.030 28.635,218.920 28.926,219.800 29.053 C 220.680 29.179,221.571 29.444,221.780 29.641 C 221.989 29.838,222.743 30.000,223.456 30.000 C 224.169 30.000,224.864 30.180,225.000 30.400 C 225.136 30.620,225.766 30.800,226.400 30.800 C 227.034 30.800,227.664 30.980,227.800 31.200 C 227.936 31.420,228.566 31.600,229.200 31.600 C 229.834 31.600,230.464 31.780,230.600 32.000 C 230.736 32.220,231.276 32.400,231.800 32.400 C 232.324 32.400,232.864 32.580,233.000 32.800 C 233.136 33.020,233.597 33.200,234.024 33.200 C 234.451 33.200,234.800 33.380,234.800 33.600 C 234.800 33.820,235.239 34.000,235.776 34.000 C 236.313 34.000,236.864 34.180,237.000 34.400 C 237.136 34.620,237.597 34.800,238.024 34.800 C 238.451 34.800,238.800 34.980,238.800 35.200 C 238.800 35.420,239.149 35.600,239.576 35.600 C 240.003 35.600,240.464 35.780,240.600 36.000 C 240.736 36.220,241.197 36.400,241.624 36.400 C 242.051 36.400,242.400 36.580,242.400 36.800 C 242.400 37.020,242.760 37.200,243.200 37.200 C 243.640 37.200,244.000 37.380,244.000 37.600 C 244.000 37.820,244.360 38.000,244.800 38.000 C 245.240 38.000,245.600 38.180,245.600 38.400 C 245.600 38.620,245.960 38.800,246.400 38.800 C 246.840 38.800,247.200 38.980,247.200 39.200 C 247.200 39.420,247.470 39.600,247.800 39.600 C 248.130 39.600,248.400 39.780,248.400 40.000 C 248.400 40.220,248.670 40.400,249.000 40.400 C 249.330 40.400,249.600 40.580,249.600 40.800 C 249.600 41.020,249.878 41.200,250.217 41.200 C 250.556 41.200,251.051 41.382,251.317 41.604 C 251.583 41.826,253.330 43.027,255.200 44.273 C 257.070 45.519,258.690 46.651,258.800 46.788 C 258.910 46.926,259.630 47.473,260.400 48.004 C 261.170 48.535,262.250 49.427,262.800 49.986 C 263.350 50.545,264.497 51.523,265.349 52.159 C 267.200 53.541,270.393 56.722,272.600 59.383 C 273.480 60.444,274.564 61.692,275.009 62.156 C 275.453 62.620,276.255 63.630,276.790 64.400 C 277.325 65.170,278.086 66.091,278.481 66.447 C 278.876 66.803,279.200 67.271,279.200 67.488 C 279.200 67.704,279.740 68.446,280.400 69.137 C 281.060 69.828,281.600 70.664,281.600 70.996 C 281.600 71.328,281.758 71.600,281.951 71.600 C 282.145 71.600,282.527 72.140,282.800 72.800 C 283.073 73.460,283.455 74.000,283.649 74.000 C 283.842 74.000,284.000 74.360,284.000 74.800 C 284.000 75.240,284.135 75.600,284.301 75.600 C 284.466 75.600,285.042 76.455,285.580 77.500 C 286.118 78.545,286.854 79.850,287.215 80.400 C 287.577 80.950,288.541 83.020,289.357 85.000 C 290.174 86.980,291.012 88.913,291.221 89.295 C 291.429 89.677,291.600 90.442,291.600 90.995 C 291.600 91.548,291.780 92.000,292.000 92.000 C 292.220 92.000,292.400 92.540,292.400 93.200 C 292.400 93.860,292.580 94.400,292.800 94.400 C 293.020 94.400,293.200 94.940,293.200 95.600 C 293.200 96.260,293.380 96.800,293.600 96.800 C 293.820 96.800,294.000 97.430,294.000 98.200 C 294.000 98.970,294.180 99.600,294.400 99.600 C 294.620 99.600,294.800 100.320,294.800 101.200 C 294.800 102.080,294.962 102.800,295.160 102.800 C 295.507 102.800,295.617 103.369,296.291 108.600 L 296.600 111.000 300.400 111.283 C 310.780 112.057,321.050 113.005,323.400 113.405 C 324.917 113.663,325.003 113.624,325.058 112.639 C 325.089 112.067,324.930 111.600,324.703 111.600 C 324.445 111.600,324.383 110.930,324.537 109.809 C 324.784 108.003,324.549 106.661,324.041 106.975 C 323.889 107.069,323.773 106.393,323.782 105.473 C 323.792 104.553,323.571 103.511,323.290 103.158 C 322.701 102.416,323.060 101.075,323.742 101.471 C 323.994 101.618,323.867 101.358,323.461 100.894 C 323.054 100.430,322.840 99.859,322.984 99.625 C 323.129 99.391,323.057 99.200,322.824 99.200 C 322.591 99.200,322.400 99.009,322.400 98.776 C 322.400 98.543,322.543 98.441,322.717 98.549 C 322.891 98.656,323.053 98.352,323.076 97.872 C 323.099 97.393,323.032 97.225,322.926 97.500 C 322.522 98.548,321.905 97.977,322.144 96.778 C 322.289 96.053,322.175 95.198,321.863 94.678 C 321.574 94.195,321.360 93.325,321.387 92.744 C 321.420 92.026,321.269 91.752,320.913 91.889 C 320.520 92.039,320.445 91.742,320.612 90.694 C 320.775 89.665,320.674 89.237,320.224 89.064 C 319.888 88.936,319.714 88.568,319.838 88.246 C 319.961 87.925,319.869 87.303,319.634 86.864 C 319.316 86.270,319.334 86.013,319.703 85.864 C 320.017 85.737,319.961 85.652,319.552 85.632 C 319.141 85.612,318.922 85.271,318.952 84.700 C 318.984 84.093,318.805 83.843,318.400 83.933 C 318.070 84.007,317.928 83.939,318.084 83.783 C 318.240 83.626,318.129 83.026,317.837 82.449 C 317.545 81.872,317.355 81.091,317.416 80.712 C 317.476 80.334,317.332 80.064,317.097 80.112 C 316.466 80.241,315.946 77.482,316.531 77.111 C 316.831 76.920,316.724 76.810,316.233 76.806 C 315.812 76.803,315.572 76.695,315.701 76.566 C 316.084 76.183,315.169 74.016,314.665 74.112 C 314.409 74.160,314.257 73.867,314.327 73.460 C 314.403 73.016,314.283 72.825,314.027 72.983 C 313.641 73.222,313.396 72.382,313.574 71.437 C 313.611 71.237,313.449 70.954,313.212 70.807 C 312.975 70.661,312.698 70.104,312.595 69.571 C 312.493 69.037,312.137 68.400,311.805 68.156 C 311.472 67.912,311.200 67.529,311.200 67.305 C 311.200 67.081,310.932 66.676,310.604 66.404 C 310.277 66.132,310.107 65.750,310.228 65.555 C 310.349 65.360,310.257 65.200,310.024 65.200 C 309.432 65.200,309.492 64.116,310.100 63.837 C 310.375 63.711,310.177 63.713,309.661 63.843 C 308.882 64.038,308.761 63.952,308.951 63.339 C 309.078 62.933,309.009 62.330,308.797 62.000 C 308.585 61.670,308.409 61.548,308.406 61.729 C 308.392 62.509,307.197 60.767,307.172 59.929 C 307.138 58.806,306.474 57.097,306.422 58.000 C 306.392 58.520,306.339 58.522,306.020 58.019 C 305.818 57.700,305.744 57.290,305.856 57.109 C 305.968 56.928,305.821 56.830,305.530 56.890 C 305.179 56.963,305.040 56.662,305.118 56.000 C 305.196 55.335,305.119 55.171,304.888 55.509 C 304.302 56.370,302.398 53.487,302.737 52.251 C 302.790 52.059,302.530 52.018,302.160 52.160 C 301.595 52.377,301.568 52.320,301.992 51.809 C 302.419 51.295,302.361 51.200,301.622 51.200 C 300.905 51.200,300.792 51.036,300.999 50.300 C 301.166 49.706,301.130 49.576,300.891 49.919 C 300.601 50.335,300.426 50.313,300.008 49.809 C 299.721 49.464,299.601 49.066,299.740 48.926 C 299.880 48.786,299.624 48.412,299.171 48.094 C 298.717 47.777,298.436 47.283,298.545 46.998 C 298.667 46.680,298.484 46.520,298.072 46.584 C 297.343 46.698,296.437 45.437,296.414 44.276 C 296.406 43.878,296.220 43.664,296.000 43.800 C 295.780 43.936,295.600 43.846,295.600 43.600 C 295.600 43.354,295.408 43.271,295.173 43.416 C 294.637 43.748,293.559 42.379,293.807 41.679 C 293.908 41.393,293.813 41.268,293.595 41.403 C 293.378 41.537,293.200 41.367,293.200 41.024 C 293.200 40.681,292.930 40.400,292.600 40.400 C 292.270 40.400,292.000 40.220,292.000 40.000 C 292.000 39.780,291.685 39.597,291.300 39.594 C 290.702 39.589,290.687 39.531,291.200 39.200 C 291.530 38.987,291.609 38.809,291.375 38.806 C 291.142 38.803,290.515 38.395,289.983 37.900 C 289.451 37.405,288.877 37.045,288.708 37.100 C 288.395 37.202,288.237 36.273,288.388 35.222 C 288.457 34.742,288.364 34.732,287.848 35.160 C 287.313 35.604,287.127 35.474,286.538 34.239 C 286.161 33.448,285.624 32.800,285.346 32.800 C 285.067 32.800,284.696 32.575,284.520 32.300 C 284.344 32.025,283.840 31.592,283.400 31.337 C 282.960 31.083,282.639 30.696,282.686 30.478 C 282.734 30.260,282.436 30.170,282.025 30.278 C 281.482 30.420,281.294 30.271,281.338 29.737 C 281.372 29.331,281.175 29.045,280.900 29.100 C 280.625 29.155,280.421 29.065,280.447 28.900 C 280.574 28.096,280.337 27.950,279.700 28.438 C 279.315 28.733,279.129 28.821,279.286 28.634 C 279.683 28.163,278.852 26.721,278.359 27.026 C 278.138 27.162,277.631 26.897,277.232 26.437 C 276.833 25.977,276.292 25.600,276.029 25.600 C 275.767 25.600,275.664 25.420,275.800 25.200 C 275.936 24.980,275.756 24.800,275.400 24.800 C 275.044 24.800,274.856 24.632,274.983 24.427 C 275.110 24.222,274.716 23.997,274.107 23.927 C 273.446 23.851,273.000 23.558,273.000 23.200 C 273.000 22.870,272.587 22.541,272.083 22.470 C 271.364 22.368,271.212 22.151,271.379 21.470 C 271.496 20.991,271.489 20.825,271.363 21.100 C 270.999 21.892,270.404 21.700,268.574 20.200 C 267.634 19.430,266.603 18.800,266.282 18.800 C 265.534 18.800,264.716 17.827,265.103 17.399 C 265.267 17.219,265.165 17.207,264.879 17.373 C 264.561 17.556,264.065 17.337,263.609 16.810 C 263.197 16.336,262.712 15.914,262.530 15.874 C 262.349 15.833,262.239 15.683,262.286 15.541 C 262.334 15.399,262.046 15.368,261.646 15.472 C 261.246 15.577,260.624 15.367,260.263 15.006 C 259.902 14.644,259.440 14.452,259.237 14.577 C 259.034 14.702,258.805 14.614,258.727 14.381 C 258.649 14.147,258.319 13.901,257.993 13.833 C 256.503 13.522,254.822 12.688,255.024 12.361 C 255.147 12.162,255.046 12.000,254.800 12.000 C 254.554 12.000,254.464 11.820,254.600 11.600 C 254.736 11.380,254.670 11.200,254.453 11.200 C 254.236 11.200,253.976 11.515,253.876 11.900 C 253.720 12.494,253.686 12.501,253.646 11.947 C 253.595 11.216,251.607 10.645,251.588 11.355 C 251.581 11.600,251.391 11.484,251.166 11.097 C 250.941 10.710,250.839 10.260,250.940 10.097 C 251.041 9.934,250.691 9.800,250.162 9.800 C 249.633 9.800,249.200 9.946,249.200 10.124 C 249.200 10.302,249.008 10.328,248.773 10.183 C 248.538 10.038,248.444 9.663,248.564 9.350 C 248.731 8.916,248.617 8.870,248.081 9.157 C 247.136 9.663,245.953 8.987,246.282 8.130 C 246.489 7.591,246.342 7.528,245.423 7.758 C 244.698 7.940,243.997 7.828,243.394 7.433 C 242.887 7.100,242.027 6.748,241.484 6.650 C 240.941 6.551,239.914 6.169,239.202 5.801 C 238.489 5.432,237.557 5.222,237.130 5.334 C 236.551 5.486,236.458 5.413,236.762 5.046 C 237.072 4.673,236.765 4.533,235.485 4.463 C 234.558 4.413,233.440 4.252,233.000 4.105 C 232.560 3.958,231.750 3.830,231.200 3.819 C 230.650 3.809,230.230 3.620,230.267 3.400 C 230.303 3.180,229.595 2.956,228.692 2.903 C 227.789 2.850,226.950 2.670,226.826 2.503 C 226.701 2.336,225.880 2.170,225.000 2.133 C 224.120 2.097,223.164 2.052,222.876 2.033 C 222.588 2.015,222.468 1.814,222.608 1.586 C 222.767 1.330,222.496 1.239,221.894 1.349 C 221.361 1.445,220.678 1.372,220.376 1.185 C 220.056 0.987,219.612 1.024,219.313 1.272 C 218.927 1.592,218.792 1.512,218.768 0.949 C 218.751 0.533,218.648 0.421,218.536 0.697 C 218.404 1.024,218.108 1.075,217.668 0.844 C 217.300 0.652,216.145 0.521,215.100 0.553 C 214.055 0.585,213.200 0.492,213.200 0.346 C 213.200 0.201,207.620 0.089,200.800 0.098 C 192.018 0.110,188.398 0.244,188.394 0.557 C 188.390 0.806,188.237 0.762,188.044 0.457 C 187.855 0.159,187.601 0.075,187.479 0.272 M191.505 57.083 C 192.002 57.179,192.722 57.175,193.105 57.075 C 193.487 56.975,193.080 56.896,192.200 56.901 C 191.320 56.905,191.007 56.987,191.505 57.083 M207.300 57.076 C 207.685 57.176,208.315 57.176,208.700 57.076 C 209.085 56.975,208.770 56.893,208.000 56.893 C 207.230 56.893,206.915 56.975,207.300 57.076 M34.000 155.600 C 34.000 155.820,34.270 156.000,34.600 156.000 C 34.930 156.000,35.200 155.820,35.200 155.600 C 35.200 155.380,34.930 155.200,34.600 155.200 C 34.270 155.200,34.000 155.380,34.000 155.600 M36.800 155.600 C 36.800 155.750,37.700 155.905,38.800 155.944 C 39.900 155.983,40.800 155.851,40.800 155.650 C 40.800 155.450,39.900 155.295,38.800 155.306 C 37.700 155.317,36.800 155.449,36.800 155.600 M357.833 155.500 C 357.502 155.831,357.290 155.877,355.738 155.950 L 354.676 156.000 354.941 161.900 C 355.087 165.145,355.384 171.220,355.601 175.400 C 358.157 224.580,357.503 275.587,353.586 332.600 C 352.770 344.462,352.032 347.043,348.455 350.524 C 344.024 354.837,340.963 355.409,329.800 354.012 C 299.348 350.201,265.235 353.951,244.135 363.428 C 224.764 372.128,212.275 382.299,200.700 398.802 L 200.000 399.800 199.300 398.802 C 173.517 362.043,129.614 347.167,67.800 354.245 C 54.024 355.823,47.924 351.347,47.024 339.000 C 46.880 337.020,46.584 332.970,46.368 330.000 C 45.441 317.278,44.707 303.791,43.919 285.000 C 43.220 268.302,43.219 204.806,43.917 188.600 C 44.712 170.170,45.108 162.464,45.419 159.356 C 45.576 157.792,45.546 156.414,45.352 156.294 C 44.959 156.051,44.966 155.973,44.386 166.800 C 42.190 207.794,42.196 269.000,44.399 307.600 C 45.706 330.493,46.228 337.150,47.726 350.000 C 48.641 357.846,49.200 363.965,49.200 366.141 C 49.200 367.189,49.370 369.251,49.577 370.723 C 49.784 372.195,50.160 374.930,50.412 376.800 C 52.061 389.042,57.013 394.538,67.902 396.210 C 68.965 396.373,69.844 396.796,70.244 397.336 C 70.676 397.920,70.945 398.038,71.075 397.700 C 71.303 397.107,72.400 397.024,72.400 397.600 C 72.400 397.850,74.792 398.000,78.776 398.000 C 82.283 398.000,85.256 398.168,85.383 398.372 C 85.513 398.582,89.566 398.762,94.681 398.785 C 99.669 398.808,103.942 398.986,104.178 399.182 C 105.291 400.106,294.842 400.103,295.413 399.180 C 295.551 398.956,299.834 398.800,305.824 398.800 C 312.341 398.800,316.000 398.656,316.000 398.400 C 316.000 398.147,318.792 398.000,323.576 398.000 C 328.196 398.000,331.249 397.844,331.400 397.600 C 331.549 397.360,334.263 397.200,338.200 397.200 C 342.137 397.200,344.851 397.040,345.000 396.800 C 345.146 396.563,347.596 396.400,351.000 396.400 C 354.404 396.400,356.854 396.237,357.000 396.000 C 357.144 395.767,359.404 395.600,362.424 395.600 C 365.608 395.600,367.600 395.446,367.600 395.200 C 367.600 394.957,369.400 394.800,372.200 394.800 C 375.000 394.800,376.800 394.643,376.800 394.400 C 376.800 394.177,377.875 394.000,379.224 394.000 C 380.737 394.000,381.554 393.850,381.400 393.600 C 381.260 393.373,381.596 393.200,382.176 393.200 C 382.739 393.200,383.200 393.009,383.200 392.776 C 383.200 392.543,383.365 392.455,383.568 392.580 C 383.770 392.705,384.207 392.536,384.539 392.204 C 384.871 391.872,385.367 391.600,385.641 391.600 C 386.312 391.600,390.000 387.679,390.000 386.966 C 390.000 386.655,390.136 386.400,390.302 386.400 C 390.693 386.400,391.628 384.288,391.708 383.224 C 391.742 382.771,391.912 382.400,392.085 382.400 C 392.258 382.400,392.400 381.500,392.400 380.400 C 392.400 379.300,392.580 378.400,392.800 378.400 C 393.029 378.400,393.200 377.200,393.200 375.600 C 393.200 374.000,393.371 372.800,393.600 372.800 C 393.831 372.800,394.000 371.541,394.000 369.824 C 394.000 368.187,394.180 366.736,394.400 366.600 C 394.620 366.464,394.800 365.028,394.800 363.410 C 394.800 361.791,394.971 360.407,395.180 360.333 C 395.389 360.260,395.592 358.531,395.632 356.491 C 395.673 354.451,395.862 352.685,396.053 352.567 C 396.244 352.449,396.400 350.833,396.400 348.976 C 396.400 346.992,396.565 345.600,396.800 345.600 C 397.041 345.600,397.200 343.941,397.200 341.424 C 397.200 339.071,397.375 337.139,397.600 337.000 C 397.827 336.860,398.000 334.870,398.000 332.400 C 398.000 329.930,398.173 327.940,398.400 327.800 C 398.636 327.654,398.800 325.223,398.800 321.856 C 398.800 317.833,398.947 316.013,399.300 315.660 C 399.695 315.265,399.800 304.755,399.800 265.800 C 399.800 226.845,399.695 216.335,399.300 215.940 C 398.947 215.587,398.800 213.763,398.800 209.720 C 398.800 206.173,398.648 204.000,398.400 204.000 C 398.157 204.000,398.000 202.227,398.000 199.480 C 398.000 196.994,397.832 194.789,397.627 194.580 C 397.422 194.371,397.151 192.490,397.024 190.400 C 396.897 188.310,396.692 184.935,396.569 182.900 C 396.446 180.865,396.177 179.200,395.973 179.200 C 395.768 179.200,395.600 177.771,395.600 176.024 C 395.600 174.277,395.420 172.736,395.200 172.600 C 394.980 172.464,394.797 171.238,394.794 169.876 C 394.790 168.130,394.673 167.577,394.400 168.000 C 394.106 168.455,394.011 168.286,394.006 167.300 C 394.003 166.585,393.820 166.000,393.600 166.000 C 393.380 166.000,393.200 165.640,393.200 165.200 C 393.200 164.760,393.020 164.400,392.800 164.400 C 392.580 164.400,392.400 164.138,392.400 163.817 C 392.400 162.919,387.938 158.769,386.706 158.522 C 386.105 158.401,385.711 158.145,385.830 157.951 C 385.950 157.758,385.597 157.600,385.047 157.600 C 384.497 157.600,383.936 157.420,383.800 157.200 C 383.664 156.980,382.584 156.800,381.400 156.800 C 380.216 156.800,379.136 156.620,379.000 156.400 C 378.851 156.160,376.129 156.000,372.176 156.000 C 368.059 156.000,365.600 155.850,365.600 155.600 C 365.600 155.134,358.293 155.040,357.833 155.500 M21.051 156.317 C 20.944 156.491,21.203 156.660,21.628 156.692 C 22.052 156.724,22.400 156.581,22.400 156.375 C 22.400 155.920,21.325 155.873,21.051 156.317 M4.400 173.000 C 4.400 173.330,4.580 173.600,4.800 173.600 C 5.020 173.600,5.200 173.330,5.200 173.000 C 5.200 172.670,5.020 172.400,4.800 172.400 C 4.580 172.400,4.400 172.670,4.400 173.000 M282.000 174.402 C 271.147 175.155,257.950 177.455,249.800 180.017 C 241.288 182.692,235.072 185.157,228.615 188.418 C 223.939 190.780,223.614 196.598,228.028 198.922 C 229.994 199.957,232.400 199.609,236.200 197.739 C 248.073 191.897,261.563 188.301,278.800 186.383 C 283.645 185.844,307.274 186.118,311.800 186.765 C 321.638 188.173,324.063 187.759,325.814 184.372 C 327.027 182.028,325.971 178.464,323.661 177.099 C 320.237 175.077,295.433 173.472,282.000 174.402 M2.800 186.824 C 2.800 187.277,2.980 187.536,3.200 187.400 C 3.420 187.264,3.600 186.893,3.600 186.576 C 3.600 186.259,3.420 186.000,3.200 186.000 C 2.980 186.000,2.800 186.371,2.800 186.824 M2.267 194.267 C 1.841 194.692,1.958 196.473,2.394 196.204 C 2.611 196.070,2.751 195.519,2.707 194.980 C 2.616 193.879,2.630 193.903,2.267 194.267 M1.333 204.982 C 1.333 205.743,1.483 206.272,1.667 206.159 C 2.101 205.890,2.101 203.600,1.667 203.600 C 1.483 203.600,1.333 204.222,1.333 204.982 M286.000 206.245 C 269.954 206.946,249.756 211.056,238.875 215.834 C 238.064 216.190,237.040 216.625,236.600 216.799 C 226.940 220.637,223.819 223.616,225.170 227.708 C 226.626 232.122,230.049 232.707,236.522 229.649 C 247.137 224.635,260.032 220.872,272.200 219.239 C 280.012 218.191,283.310 218.000,293.600 218.000 C 303.798 218.000,307.481 218.215,314.600 219.224 C 322.580 220.355,326.400 218.703,326.400 214.121 C 326.400 209.205,324.388 208.351,309.200 206.817 C 304.998 206.392,290.693 206.040,286.000 206.245 M0.532 216.994 C 0.511 217.761,0.626 218.308,0.786 218.209 C 1.168 217.973,1.233 215.600,0.858 215.600 C 0.699 215.600,0.552 216.227,0.532 216.994 M91.000 239.022 C 80.422 240.156,79.012 240.384,78.030 241.118 C 74.180 243.992,74.511 249.433,78.656 251.400 C 79.991 252.033,80.504 252.051,84.164 251.592 C 86.384 251.314,89.460 250.930,91.000 250.738 C 95.986 250.117,116.618 249.863,121.600 250.361 C 138.678 252.067,151.912 255.462,164.600 261.390 C 169.639 263.744,170.761 264.070,172.303 263.628 C 175.458 262.723,177.106 260.296,176.687 257.172 C 176.258 253.974,175.305 253.300,164.402 248.487 C 146.185 240.444,115.104 236.436,91.000 239.022 M277.600 238.853 C 253.107 241.345,226.169 250.627,224.976 256.986 C 224.451 259.788,226.309 262.627,229.294 263.581 C 231.045 264.140,231.507 264.025,235.990 261.917 C 245.654 257.371,257.101 253.775,267.400 252.052 C 277.348 250.387,282.304 250.000,293.687 250.000 C 303.187 250.000,306.901 250.227,314.027 251.241 C 322.954 252.511,326.400 251.023,326.400 245.899 C 326.400 241.381,323.875 240.361,308.886 238.822 C 304.077 238.329,282.545 238.350,277.600 238.853 M91.600 271.029 C 79.058 272.322,79.213 272.295,77.722 273.432 C 74.778 275.678,74.461 279.634,77.021 282.194 C 78.751 283.925,80.207 284.193,84.654 283.598 C 115.155 279.518,142.027 282.960,165.779 293.990 C 172.655 297.182,177.115 295.471,176.697 289.800 C 176.421 286.048,174.354 284.589,162.800 279.989 C 142.654 271.969,115.556 268.559,91.600 271.029 M278.200 270.849 C 259.945 272.802,245.094 276.717,231.575 283.139 C 225.105 286.214,223.640 288.550,225.619 292.638 C 227.349 296.212,230.389 296.675,235.616 294.160 C 248.935 287.752,264.175 283.792,281.000 282.365 C 286.984 281.858,304.387 282.097,310.200 282.767 C 311.960 282.970,315.020 283.327,317.000 283.560 C 324.949 284.498,329.251 279.525,324.931 274.392 C 323.401 272.573,321.901 272.256,307.932 270.802 C 303.357 270.326,282.784 270.359,278.200 270.849 M0.114 299.800 C 0.117 300.900,0.195 301.303,0.287 300.695 C 0.379 300.086,0.377 299.186,0.282 298.695 C 0.187 298.203,0.111 298.700,0.114 299.800 M96.800 302.632 C 96.470 302.709,93.950 302.965,91.200 303.201 C 77.849 304.346,76.401 304.871,75.383 308.927 C 74.079 314.120,78.272 316.787,85.903 315.618 C 102.957 313.006,123.584 313.600,139.400 317.158 C 140.280 317.356,141.630 317.641,142.400 317.793 C 143.170 317.944,144.250 318.211,144.800 318.387 C 145.350 318.563,146.610 318.935,147.600 319.214 C 153.398 320.847,160.335 323.478,166.459 326.368 C 171.240 328.624,173.817 328.316,175.886 325.241 C 178.394 321.512,176.756 318.395,170.765 315.499 C 156.552 308.629,142.259 304.882,122.332 302.804 C 118.820 302.437,98.234 302.299,96.800 302.632 M277.400 303.001 C 258.649 305.050,244.681 308.897,229.494 316.192 C 224.092 318.786,223.208 324.330,227.769 327.003 C 230.216 328.437,231.052 328.296,237.553 325.351 C 246.495 321.300,256.205 318.248,265.800 316.474 C 282.327 313.418,294.867 313.210,317.297 315.620 C 323.607 316.298,326.200 314.720,326.200 310.200 C 326.200 305.424,324.496 304.611,311.400 303.147 C 305.552 302.493,282.933 302.396,277.400 303.001 M0.400 315.153 C 0.400 315.813,0.580 316.464,0.800 316.600 C 1.033 316.744,1.200 316.345,1.200 315.647 C 1.200 314.987,1.020 314.336,0.800 314.200 C 0.567 314.056,0.400 314.455,0.400 315.153 M1.289 327.429 C 1.245 327.963,1.387 328.400,1.604 328.400 C 2.073 328.400,2.140 326.934,1.685 326.652 C 1.512 326.545,1.334 326.895,1.289 327.429 M3.600 352.800 C 3.600 353.547,3.707 353.653,4.080 353.280 C 4.453 352.907,4.453 352.693,4.080 352.320 C 3.707 351.947,3.600 352.053,3.600 352.800 M5.200 366.200 C 5.200 366.530,5.380 366.800,5.600 366.800 C 5.820 366.800,6.000 366.530,6.000 366.200 C 6.000 365.870,5.820 365.600,5.600 365.600 C 5.380 365.600,5.200 365.870,5.200 366.200 M6.909 377.591 C 6.943 378.036,7.112 378.400,7.285 378.400 C 7.727 378.400,7.679 377.296,7.224 377.015 C 7.018 376.887,6.876 377.147,6.909 377.591 M31.749 395.082 C 32.132 395.466,33.974 395.566,34.191 395.215 C 34.333 394.984,33.850 394.845,33.015 394.876 C 32.235 394.906,31.665 394.998,31.749 395.082 M42.944 395.877 C 43.398 396.331,44.873 396.442,44.601 396.001 C 44.464 395.781,43.973 395.600,43.510 395.600 C 43.046 395.600,42.791 395.725,42.944 395.877 M54.591 396.815 C 54.429 397.077,54.852 397.195,55.741 397.135 C 56.515 397.083,57.059 396.896,56.951 396.720 C 56.664 396.256,54.892 396.327,54.591 396.815 " stroke="none" fill="#b47c8c" fill-rule="evenodd"></path><path id="path1" d="M35.200 155.600 C 35.200 155.850,32.800 156.000,28.800 156.000 C 25.280 156.000,22.400 156.153,22.400 156.340 C 22.400 156.527,21.282 156.714,19.915 156.755 C 18.483 156.798,17.296 157.035,17.115 157.315 C 16.877 157.681,16.704 157.653,16.406 157.200 C 16.143 156.799,16.010 156.766,16.006 157.100 C 16.003 157.375,15.730 157.600,15.400 157.600 C 15.070 157.600,14.800 157.799,14.800 158.043 C 14.800 158.286,14.530 158.382,14.200 158.255 C 13.870 158.129,13.600 158.161,13.600 158.327 C 13.600 158.494,13.195 158.660,12.700 158.697 C 12.205 158.734,11.501 159.132,11.136 159.582 C 10.771 160.032,10.276 160.400,10.036 160.400 C 9.796 160.400,9.600 160.580,9.600 160.800 C 9.600 161.020,9.233 161.567,8.785 162.015 C 8.337 162.463,8.078 163.003,8.209 163.215 C 8.340 163.427,8.257 163.600,8.024 163.600 C 7.791 163.600,7.600 163.870,7.600 164.200 C 7.600 164.530,7.454 164.800,7.275 164.800 C 7.096 164.800,6.702 165.430,6.400 166.200 C 6.098 166.970,5.659 167.603,5.425 167.606 C 5.191 167.609,5.270 167.803,5.600 168.037 C 6.052 168.356,6.076 168.511,5.700 168.664 C 5.379 168.794,5.200 169.715,5.200 171.233 C 5.200 172.535,5.048 173.600,4.863 173.600 C 4.678 173.600,4.487 174.815,4.440 176.300 C 4.393 177.785,4.184 179.171,3.977 179.380 C 3.770 179.589,3.600 181.398,3.600 183.400 C 3.600 185.402,3.426 187.214,3.214 187.426 C 3.001 187.639,2.801 189.657,2.770 191.910 C 2.738 194.163,2.552 196.106,2.356 196.227 C 2.160 196.348,2.000 198.586,2.000 201.200 C 2.000 203.937,1.830 206.058,1.600 206.200 C 1.373 206.340,1.200 208.337,1.200 210.824 C 1.200 214.055,1.069 215.202,0.700 215.206 C 0.368 215.210,0.401 215.340,0.800 215.594 C 1.308 215.917,1.318 216.107,0.870 216.830 C 0.579 217.299,0.534 217.564,0.770 217.418 C 1.363 217.052,1.312 217.728,0.700 218.340 C -0.018 219.058,-0.034 313.195,0.683 314.059 C 1.010 314.453,1.184 316.673,1.220 320.922 C 1.251 324.569,1.426 327.108,1.637 326.977 C 1.944 326.788,2.258 333.808,2.021 335.540 C 1.980 335.837,2.139 335.962,2.373 335.817 C 2.608 335.671,2.800 335.833,2.800 336.176 C 2.800 336.519,2.575 336.803,2.300 336.806 C 1.948 336.810,1.932 336.899,2.247 337.106 C 2.514 337.282,2.726 338.927,2.773 341.193 C 2.817 343.278,3.010 345.083,3.203 345.202 C 3.396 345.321,3.590 346.905,3.634 348.721 C 3.677 350.537,3.843 352.103,4.002 352.201 C 4.161 352.299,4.323 353.770,4.362 355.469 C 4.402 357.169,4.602 358.761,4.807 359.009 C 5.044 359.294,5.008 359.632,4.710 359.930 C 4.350 360.290,4.352 360.400,4.720 360.400 C 5.044 360.400,5.200 361.244,5.200 363.000 C 5.200 364.467,5.374 365.600,5.600 365.600 C 5.833 365.600,6.000 366.933,6.000 368.800 C 6.000 370.667,6.167 372.000,6.400 372.000 C 6.622 372.000,6.800 373.059,6.800 374.376 C 6.800 375.683,6.980 376.864,7.200 377.000 C 7.420 377.136,7.600 378.216,7.600 379.400 C 7.600 380.584,7.780 381.664,8.000 381.800 C 8.220 381.936,8.400 382.677,8.400 383.447 C 8.400 384.404,8.546 384.757,8.862 384.562 C 9.148 384.385,9.215 384.452,9.039 384.737 C 8.727 385.242,9.955 387.600,10.529 387.600 C 10.725 387.600,10.778 387.879,10.647 388.221 C 10.516 388.562,10.560 388.748,10.744 388.634 C 10.929 388.521,11.314 388.865,11.600 389.400 C 11.886 389.935,12.273 390.278,12.460 390.163 C 12.647 390.047,12.800 390.143,12.800 390.376 C 12.800 390.609,13.081 390.800,13.424 390.800 C 13.767 390.800,13.936 390.980,13.800 391.200 C 13.659 391.428,14.004 391.600,14.600 391.600 C 15.196 391.600,15.541 391.772,15.400 392.000 C 15.264 392.220,15.523 392.400,15.976 392.400 C 16.429 392.400,16.800 392.536,16.800 392.703 C 16.800 393.225,19.901 394.000,21.994 394.000 C 23.097 394.000,24.000 394.180,24.000 394.400 C 24.000 394.641,25.675 394.800,28.224 394.800 C 30.547 394.800,32.355 394.950,32.241 395.133 C 32.128 395.317,32.289 395.467,32.600 395.467 C 32.911 395.467,33.072 395.317,32.959 395.133 C 32.845 394.950,33.134 394.800,33.600 394.800 C 34.066 394.800,34.349 394.959,34.229 395.153 C 34.109 395.348,35.844 395.535,38.085 395.571 C 40.578 395.610,42.392 395.822,42.757 396.117 C 43.227 396.498,43.290 396.494,43.053 396.100 C 42.853 395.767,43.019 395.600,43.553 395.600 C 43.993 395.600,44.457 395.769,44.584 395.975 C 44.712 396.181,45.127 396.341,45.508 396.332 C 49.831 396.222,56.759 396.542,56.573 396.844 C 56.445 397.051,56.489 397.194,56.670 397.163 C 57.884 396.952,68.811 397.259,68.662 397.500 C 68.560 397.665,68.909 397.826,69.438 397.858 C 71.524 397.983,70.150 396.597,67.800 396.204 C 56.856 394.376,52.058 389.022,50.412 376.800 C 50.160 374.930,49.784 372.195,49.577 370.723 C 49.370 369.251,49.200 367.189,49.200 366.141 C 49.200 363.965,48.641 357.846,47.726 350.000 C 46.228 337.150,45.706 330.493,44.399 307.600 C 42.613 276.318,42.211 214.532,43.590 183.200 C 43.967 174.631,44.671 160.841,44.886 157.800 C 44.986 156.404,44.885 156.184,44.100 156.072 C 43.605 156.002,43.200 155.804,43.200 155.633 C 43.200 155.462,42.660 155.306,42.000 155.288 C 41.340 155.269,40.800 155.421,40.800 155.627 C 40.800 156.181,38.245 156.079,37.621 155.500 C 37.190 155.100,37.139 155.100,37.365 155.500 C 37.520 155.775,37.457 156.000,37.224 156.000 C 36.991 156.000,36.800 155.820,36.800 155.600 C 36.800 155.380,36.440 155.200,36.000 155.200 C 35.560 155.200,35.200 155.380,35.200 155.600 M71.200 397.600 C 71.200 397.820,71.470 398.000,71.800 398.000 C 72.130 398.000,72.400 397.820,72.400 397.600 C 72.400 397.380,72.130 397.200,71.800 397.200 C 71.470 397.200,71.200 397.380,71.200 397.600 " stroke="none" fill="#9c5c74" fill-rule="evenodd"></path><path id="path2" d="M222.546 1.687 C 222.440 1.859,222.633 2.000,222.976 2.000 C 223.319 2.000,223.731 2.014,223.890 2.030 C 224.050 2.046,224.241 1.877,224.316 1.653 C 224.472 1.184,222.837 1.216,222.546 1.687 M233.600 4.000 C 233.600 4.220,233.870 4.400,234.200 4.400 C 234.530 4.400,234.800 4.220,234.800 4.000 C 234.800 3.780,234.530 3.600,234.200 3.600 C 233.870 3.600,233.600 3.780,233.600 4.000 M150.223 9.433 C 149.574 9.907,149.554 10.000,150.100 10.000 C 150.459 10.000,150.871 9.808,151.016 9.573 C 151.440 8.887,151.061 8.820,150.223 9.433 M248.619 9.169 C 248.504 9.356,248.902 9.603,249.505 9.719 C 250.933 9.993,251.043 9.839,249.816 9.280 C 249.273 9.033,248.734 8.983,248.619 9.169 M148.500 9.865 C 147.835 10.133,147.859 10.800,148.533 10.800 C 148.827 10.800,149.067 10.530,149.067 10.200 C 149.067 9.870,149.052 9.614,149.033 9.632 C 149.015 9.649,148.775 9.754,148.500 9.865 M146.435 10.958 C 146.058 11.412,146.067 11.519,146.478 11.459 C 147.030 11.378,147.387 10.853,147.090 10.557 C 146.993 10.460,146.698 10.641,146.435 10.958 M260.447 14.762 C 260.015 15.036,260.087 15.174,260.777 15.393 C 261.263 15.547,261.767 15.567,261.897 15.437 C 262.027 15.306,261.823 15.200,261.443 15.200 C 261.063 15.200,260.864 15.020,261.000 14.800 C 261.301 14.313,261.171 14.304,260.447 14.762 M133.467 17.867 C 133.036 18.297,133.159 18.667,133.733 18.667 C 134.027 18.667,134.267 18.427,134.267 18.133 C 134.267 17.559,133.897 17.436,133.467 17.867 M265.447 17.938 C 265.363 18.082,265.885 18.484,266.608 18.830 C 267.332 19.178,267.846 19.267,267.753 19.030 C 267.540 18.483,265.651 17.589,265.447 17.938 M272.973 23.100 C 273.086 23.869,274.400 24.335,274.400 23.606 C 274.400 23.357,274.220 23.264,274.000 23.400 C 273.780 23.536,273.600 23.367,273.600 23.024 C 273.600 22.681,273.436 22.400,273.235 22.400 C 273.035 22.400,272.917 22.715,272.973 23.100 M288.800 36.634 C 290.136 38.162,290.928 38.768,291.292 38.543 C 291.457 38.441,291.369 38.116,291.096 37.821 C 290.823 37.526,290.484 37.354,290.342 37.440 C 290.200 37.525,289.985 37.338,289.865 37.024 C 289.744 36.710,289.230 36.236,288.723 35.972 C 287.810 35.496,287.810 35.503,288.800 36.634 M291.884 39.600 C 291.999 40.040,292.370 40.400,292.709 40.400 C 293.226 40.400,293.209 40.273,292.600 39.600 C 292.202 39.160,291.831 38.800,291.775 38.800 C 291.720 38.800,291.769 39.160,291.884 39.600 M296.605 44.698 C 296.678 45.084,296.753 45.516,296.769 45.657 C 296.832 46.186,297.867 46.302,297.867 45.779 C 297.867 45.480,297.717 45.328,297.533 45.441 C 297.350 45.555,297.200 45.377,297.200 45.047 C 297.200 44.717,297.036 44.346,296.835 44.222 C 296.634 44.098,296.531 44.312,296.605 44.698 M299.865 49.095 C 299.760 49.265,300.004 49.812,300.408 50.311 C 300.837 50.841,301.247 51.048,301.395 50.809 C 301.534 50.584,301.457 50.400,301.224 50.400 C 300.991 50.400,300.800 50.141,300.800 49.824 C 300.800 49.154,300.144 48.643,299.865 49.095 M307.289 60.229 C 307.245 60.763,307.387 61.200,307.604 61.200 C 308.073 61.200,308.140 59.734,307.685 59.452 C 307.512 59.345,307.334 59.695,307.289 60.229 M91.293 61.600 C 90.890 62.245,90.893 62.400,91.311 62.400 C 91.597 62.400,91.857 62.040,91.890 61.600 C 91.923 61.160,91.915 60.800,91.871 60.800 C 91.828 60.800,91.568 61.160,91.293 61.600 M310.800 66.400 C 311.035 66.840,311.447 67.186,311.714 67.168 C 312.080 67.145,312.077 67.087,311.700 66.935 C 311.425 66.824,311.200 66.478,311.200 66.167 C 311.200 65.855,311.014 65.600,310.786 65.600 C 310.505 65.600,310.510 65.858,310.800 66.400 M82.800 79.176 C 82.800 79.629,82.980 80.000,83.200 80.000 C 83.420 80.000,83.600 79.741,83.600 79.424 C 83.600 79.107,83.420 78.736,83.200 78.600 C 82.980 78.464,82.800 78.723,82.800 79.176 M317.600 81.600 C 317.600 82.040,317.769 82.400,317.975 82.400 C 318.181 82.400,318.323 82.040,318.290 81.600 C 318.257 81.160,318.088 80.800,317.915 80.800 C 317.742 80.800,317.600 81.160,317.600 81.600 M79.879 87.357 C 79.715 87.774,79.675 88.209,79.791 88.324 C 80.155 88.689,80.476 88.091,80.324 87.331 C 80.183 86.635,80.162 86.636,79.879 87.357 M320.400 91.429 C 320.400 91.554,320.670 91.927,321.000 92.257 C 321.651 92.908,321.733 92.811,321.357 91.833 C 321.129 91.238,320.400 90.930,320.400 91.429 M78.571 92.706 C 78.012 93.089,77.530 94.400,77.948 94.400 C 78.126 94.400,78.477 93.950,78.727 93.400 C 79.222 92.313,79.212 92.267,78.571 92.706 M321.454 93.513 C 321.343 93.692,321.396 94.070,321.571 94.353 C 321.819 94.754,321.941 94.731,322.127 94.246 C 322.379 93.590,321.798 92.957,321.454 93.513 M323.214 101.574 C 322.703 102.530,322.685 102.919,323.166 102.621 C 323.367 102.497,323.610 102.621,323.707 102.898 C 323.803 103.174,323.863 102.815,323.841 102.101 C 323.793 100.580,323.760 100.553,323.214 101.574 M323.733 105.800 C 323.733 106.130,323.883 106.400,324.067 106.400 C 324.250 106.400,324.400 106.700,324.400 107.067 C 324.400 107.433,324.499 107.635,324.619 107.514 C 324.913 107.221,324.392 105.200,324.023 105.200 C 323.864 105.200,323.733 105.470,323.733 105.800 M291.600 111.813 C 288.850 112.115,283.900 112.554,280.600 112.788 C 277.300 113.023,273.199 113.350,271.487 113.516 C 269.775 113.682,268.110 113.669,267.787 113.489 C 267.456 113.303,267.200 113.323,267.200 113.533 C 267.200 113.739,266.795 114.005,266.300 114.126 C 265.805 114.246,264.770 114.524,264.000 114.745 C 263.230 114.965,261.160 115.530,259.400 116.000 C 257.640 116.470,255.660 117.007,255.000 117.191 C 254.340 117.376,252.450 117.904,250.800 118.364 C 249.150 118.825,246.450 119.585,244.800 120.054 C 243.150 120.524,241.049 120.877,240.132 120.840 C 239.215 120.803,238.349 120.959,238.209 121.186 C 238.068 121.414,237.603 121.600,237.176 121.600 C 236.749 121.600,236.400 121.780,236.400 122.000 C 236.400 122.220,236.040 122.400,235.600 122.400 C 235.160 122.400,234.800 122.580,234.800 122.800 C 234.800 123.020,234.547 123.200,234.238 123.200 C 233.929 123.200,232.984 123.534,232.138 123.941 C 231.292 124.349,229.478 125.204,228.107 125.841 C 226.735 126.479,225.610 127.135,225.607 127.300 C 225.603 127.465,225.240 127.600,224.800 127.600 C 224.360 127.600,224.000 127.780,224.000 128.000 C 224.000 128.220,223.764 128.400,223.475 128.400 C 223.187 128.400,222.564 128.760,222.092 129.200 C 221.620 129.640,220.956 130.000,220.617 130.000 C 220.278 130.000,220.000 130.150,220.000 130.332 C 220.000 130.515,219.505 130.919,218.900 131.230 C 218.295 131.540,217.509 132.111,217.153 132.497 C 216.797 132.884,216.252 133.200,215.941 133.200 C 215.631 133.200,215.117 133.560,214.800 134.000 C 214.483 134.440,213.996 134.800,213.718 134.800 C 213.240 134.800,211.571 136.191,208.560 139.100 C 207.820 139.815,207.059 140.400,206.870 140.400 C 206.473 140.400,204.296 142.236,201.739 144.728 L 199.966 146.455 198.227 144.728 C 195.494 142.014,193.608 140.400,193.171 140.400 C 192.949 140.400,192.083 139.680,191.246 138.800 C 190.409 137.920,189.588 137.200,189.422 137.200 C 189.257 137.200,188.617 136.660,188.000 136.000 C 187.383 135.340,186.631 134.800,186.328 134.800 C 186.025 134.800,185.517 134.440,185.200 134.000 C 184.883 133.560,184.427 133.200,184.187 133.200 C 183.947 133.200,183.402 132.885,182.975 132.500 C 182.549 132.115,181.705 131.545,181.100 131.232 C 180.495 130.920,180.000 130.515,180.000 130.332 C 180.000 130.150,179.722 130.000,179.383 130.000 C 179.044 130.000,178.380 129.640,177.908 129.200 C 177.436 128.760,176.813 128.400,176.525 128.400 C 176.236 128.400,176.000 128.220,176.000 128.000 C 176.000 127.780,175.655 127.600,175.233 127.600 C 174.812 127.600,174.407 127.465,174.333 127.300 C 174.132 126.848,170.094 124.800,169.403 124.800 C 169.071 124.800,168.800 124.620,168.800 124.400 C 168.800 124.180,168.350 124.000,167.800 124.000 C 167.250 124.000,166.800 123.820,166.800 123.600 C 166.800 123.380,166.440 123.200,166.000 123.200 C 165.560 123.200,165.200 123.020,165.200 122.800 C 165.200 122.580,164.840 122.400,164.400 122.400 C 163.960 122.400,163.600 122.220,163.600 122.000 C 163.600 121.780,163.240 121.600,162.800 121.600 C 162.360 121.600,162.000 121.420,162.000 121.200 C 162.000 120.531,159.709 120.740,159.443 121.433 C 158.229 124.597,159.749 134.162,162.666 141.717 C 168.586 157.043,149.056 167.846,139.215 154.690 C 137.183 151.973,137.256 152.686,139.420 156.678 C 145.433 167.770,152.599 175.463,164.043 183.113 C 174.848 190.336,175.378 202.472,165.130 208.028 C 156.486 212.715,145.174 207.452,129.600 191.498 C 125.190 186.980,124.341 186.354,125.539 188.500 C 128.673 194.116,128.170 200.694,124.316 204.491 C 122.825 205.960,119.907 207.600,118.786 207.600 C 118.380 207.600,117.936 207.780,117.800 208.000 C 117.664 208.220,116.494 208.400,115.200 208.400 C 113.906 208.400,112.736 208.220,112.600 208.000 C 112.464 207.780,111.834 207.600,111.200 207.600 C 110.566 207.600,109.936 207.420,109.800 207.200 C 109.664 206.980,109.203 206.800,108.776 206.800 C 108.349 206.800,108.000 206.620,108.000 206.400 C 108.000 206.180,107.730 206.000,107.400 206.000 C 107.070 206.000,106.800 205.820,106.800 205.600 C 106.800 205.380,106.597 205.200,106.348 205.200 C 105.385 205.200,98.000 196.703,98.000 195.596 C 98.000 195.378,97.850 195.200,97.668 195.200 C 97.485 195.200,97.081 194.705,96.770 194.100 C 96.460 193.495,95.889 192.709,95.503 192.353 C 95.116 191.997,94.800 191.412,94.800 191.053 C 94.800 190.694,94.620 190.400,94.400 190.400 C 94.180 190.400,94.000 190.164,94.000 189.875 C 94.000 189.587,93.640 188.964,93.200 188.492 C 92.760 188.020,92.400 187.371,92.400 187.050 C 92.400 186.729,92.240 186.407,92.044 186.333 C 91.743 186.220,86.399 175.478,85.113 172.400 C 84.883 171.850,84.383 170.770,84.002 170.000 C 83.620 169.230,83.065 167.745,82.767 166.700 C 82.469 165.655,82.085 164.800,81.913 164.800 C 81.741 164.800,81.600 164.348,81.600 163.795 C 81.600 163.242,81.442 162.477,81.249 162.095 C 80.665 160.939,80.000 158.596,80.000 157.695 C 80.000 157.229,79.840 156.748,79.644 156.627 C 79.308 156.420,79.072 155.407,78.542 151.897 C 78.418 151.071,78.155 150.295,77.958 150.174 C 77.761 150.052,77.600 149.099,77.600 148.056 C 77.600 147.013,77.435 145.989,77.234 145.780 C 77.032 145.571,76.760 144.230,76.628 142.800 C 76.496 141.370,76.193 138.130,75.954 135.600 C 75.445 130.217,75.358 119.682,75.793 116.100 L 76.096 113.600 73.448 113.600 C 71.949 113.600,70.800 113.774,70.800 114.000 C 70.800 114.220,69.900 114.400,68.800 114.400 C 67.700 114.400,66.800 114.580,66.800 114.800 C 66.800 115.020,65.990 115.200,65.000 115.200 C 64.010 115.200,63.200 115.380,63.200 115.600 C 63.200 115.820,62.491 116.000,61.624 116.000 C 60.757 116.000,59.936 116.180,59.800 116.400 C 59.664 116.620,58.933 116.800,58.176 116.800 C 57.419 116.800,56.800 116.980,56.800 117.200 C 56.800 117.420,56.440 117.600,56.000 117.600 C 55.560 117.600,55.200 117.780,55.200 118.000 C 55.200 118.220,54.880 118.400,54.488 118.400 C 54.097 118.400,53.517 118.760,53.200 119.200 C 52.883 119.640,52.369 120.000,52.059 120.000 C 51.398 120.000,50.128 121.367,49.785 122.448 C 49.654 122.861,49.378 123.200,49.173 123.200 C 48.968 123.200,48.800 123.560,48.800 124.000 C 48.800 124.440,48.620 124.800,48.400 124.800 C 48.180 124.800,48.000 125.160,48.000 125.600 C 48.000 126.040,47.820 126.400,47.600 126.400 C 47.380 126.400,47.200 126.929,47.200 127.576 C 47.200 128.223,47.020 128.864,46.800 129.000 C 46.577 129.138,46.400 131.004,46.400 133.224 C 46.400 135.608,46.240 137.200,46.000 137.200 C 45.755 137.200,45.600 139.133,45.600 142.200 C 45.600 145.267,45.445 147.200,45.200 147.200 C 44.626 147.200,44.671 155.873,45.247 156.229 C 45.556 156.420,45.611 157.573,45.423 159.953 C 44.063 177.218,43.459 200.917,43.465 236.800 C 43.472 277.818,44.162 299.613,46.390 329.200 C 46.614 332.170,46.906 336.490,47.038 338.800 C 47.170 341.110,47.441 343.171,47.639 343.380 C 47.838 343.589,48.000 344.240,48.000 344.826 C 48.000 346.849,53.286 353.171,55.000 353.199 C 55.220 353.202,55.864 353.447,56.431 353.743 C 58.013 354.568,61.820 354.826,65.800 354.377 C 72.618 353.609,77.807 353.133,80.600 353.022 C 96.290 352.394,99.294 352.363,105.600 352.763 C 150.043 355.583,178.947 369.785,199.300 398.802 L 200.000 399.800 200.700 398.802 C 212.275 382.299,224.764 372.128,244.135 363.428 C 265.235 353.951,299.348 350.201,329.800 354.012 C 340.963 355.409,344.024 354.837,348.455 350.524 C 352.033 347.042,352.772 344.456,353.584 332.600 C 354.714 316.085,355.071 309.935,355.993 291.000 C 357.698 256.016,357.355 203.568,355.189 168.000 C 354.968 164.370,354.889 158.311,355.014 154.536 C 355.165 149.937,355.101 147.586,354.820 147.412 C 354.565 147.255,354.400 145.288,354.400 142.400 C 354.400 139.663,354.230 137.542,354.000 137.400 C 353.777 137.262,353.600 135.396,353.600 133.176 C 353.600 130.792,353.440 129.200,353.200 129.200 C 352.980 129.200,352.800 128.696,352.800 128.080 C 352.800 126.864,351.984 124.808,351.500 124.803 C 351.335 124.801,351.200 124.455,351.200 124.033 C 351.200 123.612,351.065 123.207,350.900 123.133 C 350.735 123.060,350.096 122.325,349.480 121.500 C 348.863 120.675,348.138 120.000,347.868 120.000 C 347.598 120.000,347.117 119.640,346.800 119.200 C 346.483 118.760,345.903 118.400,345.512 118.400 C 345.120 118.400,344.800 118.220,344.800 118.000 C 344.800 117.780,344.440 117.600,344.000 117.600 C 343.560 117.600,343.200 117.420,343.200 117.200 C 343.200 116.980,342.480 116.800,341.600 116.800 C 340.720 116.800,340.000 116.620,340.000 116.400 C 340.000 116.180,339.381 116.000,338.624 116.000 C 337.867 116.000,337.136 115.820,337.000 115.600 C 336.864 115.380,335.953 115.200,334.976 115.200 C 333.999 115.200,333.200 115.020,333.200 114.800 C 333.200 114.580,332.311 114.400,331.224 114.400 C 330.137 114.400,329.151 114.245,329.034 114.055 C 328.917 113.865,327.151 113.586,325.110 113.434 C 323.070 113.282,319.780 112.995,317.800 112.795 C 303.896 111.393,297.584 111.157,291.600 111.813 M131.454 120.256 C 131.129 122.633,131.166 127.748,131.523 129.755 C 131.678 130.628,131.800 128.478,131.800 124.855 C 131.800 117.627,131.805 117.696,131.454 120.256 M132.068 135.000 C 132.062 135.440,132.211 136.160,132.400 136.600 C 132.838 137.619,132.838 136.568,132.400 135.200 C 132.143 134.396,132.077 134.357,132.068 135.000 M311.893 175.008 C 323.958 176.257,326.400 177.429,326.400 181.974 C 326.400 187.168,322.820 188.342,311.800 186.765 C 307.274 186.118,283.645 185.844,278.800 186.383 C 261.563 188.301,248.073 191.897,236.200 197.739 C 232.400 199.609,229.994 199.957,228.028 198.922 C 223.614 196.598,223.939 190.780,228.615 188.418 C 234.109 185.643,240.909 182.858,246.800 180.970 C 250.367 179.828,251.044 179.628,254.000 178.847 C 270.566 174.473,292.607 173.011,311.893 175.008 M309.200 206.817 C 324.388 208.351,326.400 209.205,326.400 214.121 C 326.400 218.703,322.580 220.355,314.600 219.224 C 307.481 218.215,303.798 218.000,293.600 218.000 C 283.310 218.000,280.012 218.191,272.200 219.239 C 260.032 220.872,247.137 224.635,236.522 229.649 C 230.049 232.707,226.626 232.122,225.170 227.708 C 223.819 223.616,226.940 220.637,236.600 216.799 C 237.040 216.625,238.064 216.190,238.875 215.834 C 255.836 208.386,286.196 204.493,309.200 206.817 M124.800 238.979 C 139.744 240.579,154.533 244.129,164.402 248.487 C 175.305 253.300,176.258 253.974,176.687 257.172 C 177.106 260.296,175.458 262.723,172.303 263.628 C 170.761 264.070,169.639 263.744,164.600 261.390 C 156.964 257.823,148.770 255.085,140.200 253.237 C 133.221 251.733,131.147 251.407,122.173 250.405 C 117.490 249.882,99.472 249.881,94.468 250.404 C 87.995 251.080,83.873 251.631,82.357 252.024 C 76.776 253.470,72.842 245.984,76.999 241.828 C 78.395 240.432,79.570 240.072,83.761 239.758 C 85.102 239.658,88.360 239.336,91.000 239.043 C 97.806 238.287,117.975 238.249,124.800 238.979 M308.886 238.822 C 323.875 240.361,326.400 241.381,326.400 245.899 C 326.400 251.023,322.954 252.511,314.027 251.241 C 306.901 250.227,303.187 250.000,293.687 250.000 C 282.304 250.000,277.348 250.387,267.400 252.052 C 257.101 253.775,245.654 257.371,235.990 261.917 C 230.709 264.401,229.220 264.428,226.709 262.086 C 222.989 258.615,224.576 254.590,230.892 251.476 C 243.995 245.017,260.283 240.615,277.600 238.853 C 282.545 238.350,304.077 238.329,308.886 238.822 M124.400 270.987 C 142.537 272.879,156.501 276.651,171.021 283.579 C 176.539 286.213,178.271 289.526,176.012 293.127 C 174.011 296.315,171.282 296.545,165.779 293.990 C 158.279 290.507,151.859 288.194,144.400 286.286 C 136.624 284.298,131.760 283.472,121.532 282.404 C 116.516 281.880,100.396 281.884,95.114 282.410 C 88.210 283.097,84.273 283.632,82.676 284.099 C 77.012 285.753,72.789 278.091,77.029 273.851 C 78.485 272.395,79.676 272.036,84.000 271.750 C 85.430 271.656,88.850 271.339,91.600 271.047 C 98.514 270.313,117.601 270.278,124.400 270.987 M307.932 270.802 C 321.901 272.256,323.401 272.573,324.931 274.392 C 329.251 279.525,324.949 284.498,317.000 283.560 C 315.020 283.327,311.960 282.970,310.200 282.767 C 304.387 282.097,286.984 281.858,281.000 282.365 C 264.175 283.792,248.935 287.752,235.616 294.160 C 230.389 296.675,227.349 296.212,225.619 292.638 C 223.640 288.550,225.105 286.214,231.575 283.139 C 245.094 276.717,259.945 272.802,278.200 270.849 C 282.784 270.359,303.357 270.326,307.932 270.802 M122.332 302.804 C 142.259 304.882,156.552 308.629,170.765 315.499 C 176.756 318.395,178.394 321.512,175.886 325.241 C 173.817 328.316,171.240 328.624,166.459 326.368 C 160.335 323.478,153.398 320.847,147.600 319.214 C 146.610 318.935,145.350 318.563,144.800 318.387 C 144.250 318.211,143.170 317.944,142.400 317.793 C 141.630 317.641,140.280 317.356,139.400 317.158 C 122.766 313.416,98.151 312.944,83.301 316.083 C 78.268 317.147,74.569 313.720,75.405 308.768 C 75.904 305.818,78.620 304.071,83.064 303.841 C 86.479 303.664,96.533 302.774,97.000 302.607 C 97.933 302.272,118.793 302.434,122.332 302.804 M311.400 303.147 C 324.496 304.611,326.200 305.424,326.200 310.200 C 326.200 314.720,323.607 316.298,317.297 315.620 C 294.867 313.210,282.327 313.418,265.800 316.474 C 256.205 318.248,246.495 321.300,237.553 325.351 C 231.052 328.296,230.216 328.437,227.769 327.003 C 223.208 324.330,224.092 318.786,229.494 316.192 C 244.681 308.897,258.649 305.050,277.400 303.001 C 282.933 302.396,305.552 302.493,311.400 303.147 " stroke="none" fill="#fbf3e3" fill-rule="evenodd"></path><path id="path3" d="M171.794 2.410 C 171.716 2.536,172.285 2.683,173.059 2.735 C 173.935 2.794,174.370 2.675,174.213 2.421 C 173.955 2.003,172.051 1.994,171.794 2.410 M165.873 4.155 C 165.723 4.544,165.890 4.649,166.430 4.508 C 167.316 4.276,167.474 3.600,166.643 3.600 C 166.336 3.600,165.990 3.850,165.873 4.155 M160.570 5.648 C 160.225 6.207,161.466 6.287,162.196 5.753 C 162.911 5.230,162.890 5.202,161.847 5.288 C 161.236 5.338,160.662 5.500,160.570 5.648 M158.400 6.600 C 158.400 6.967,158.594 7.202,158.830 7.123 C 159.067 7.044,159.260 6.809,159.260 6.600 C 159.260 6.391,159.067 6.155,158.830 6.077 C 158.594 5.998,158.400 6.233,158.400 6.600 M246.539 8.985 C 246.945 9.293,247.545 9.442,247.872 9.317 C 248.645 9.020,247.779 8.409,246.600 8.419 C 245.829 8.425,245.827 8.446,246.539 8.985 M251.099 10.858 C 251.232 11.365,251.410 11.569,251.496 11.312 C 251.582 11.055,251.910 10.944,252.226 11.065 C 252.542 11.186,252.800 11.086,252.800 10.843 C 252.800 10.599,252.635 10.400,252.433 10.400 C 252.231 10.400,251.794 10.296,251.462 10.168 C 250.996 9.990,250.913 10.147,251.099 10.858 M144.500 11.744 C 143.558 12.211,143.263 13.200,144.067 13.200 C 144.323 13.200,144.412 13.079,144.263 12.930 C 144.115 12.782,144.490 12.333,145.097 11.933 C 146.297 11.141,145.943 11.029,144.500 11.744 M255.067 12.291 C 254.774 12.766,256.278 13.455,256.697 13.037 C 256.827 12.906,256.648 12.800,256.300 12.800 C 255.952 12.800,255.595 12.584,255.507 12.320 C 255.390 11.970,255.271 11.962,255.067 12.291 M134.800 17.420 C 134.800 17.777,135.158 17.961,135.755 17.912 C 136.878 17.819,136.742 16.996,135.590 16.909 C 135.145 16.876,134.800 17.099,134.800 17.420 M268.032 19.425 C 268.014 19.658,268.555 20.260,269.233 20.761 L 270.466 21.673 269.789 20.640 C 269.417 20.072,268.968 19.696,268.790 19.806 C 268.613 19.915,268.377 19.779,268.266 19.502 C 268.154 19.226,268.049 19.191,268.032 19.425 M271.047 21.779 C 271.150 22.047,271.497 22.267,271.817 22.267 C 272.662 22.267,272.532 21.728,271.630 21.492 C 271.131 21.362,270.926 21.463,271.047 21.779 M191.400 27.647 C 189.200 27.813,186.230 28.136,184.800 28.365 C 183.370 28.593,181.390 28.893,180.400 29.031 C 179.410 29.169,178.429 29.444,178.220 29.641 C 178.011 29.838,177.156 30.000,176.320 30.000 C 175.484 30.000,174.800 30.180,174.800 30.400 C 174.800 30.620,174.271 30.800,173.624 30.800 C 172.977 30.800,172.336 30.980,172.200 31.200 C 172.064 31.420,171.434 31.600,170.800 31.600 C 170.166 31.600,169.536 31.780,169.400 32.000 C 169.264 32.220,168.801 32.400,168.371 32.400 C 167.941 32.400,167.277 32.559,166.895 32.753 C 166.513 32.948,165.660 33.329,165.000 33.600 C 164.340 33.871,163.487 34.252,163.105 34.447 C 162.723 34.641,162.138 34.800,161.805 34.800 C 161.472 34.800,161.200 34.980,161.200 35.200 C 161.200 35.420,160.851 35.600,160.424 35.600 C 159.997 35.600,159.536 35.780,159.400 36.000 C 159.264 36.220,158.803 36.400,158.376 36.400 C 157.949 36.400,157.599 36.535,157.597 36.700 C 157.593 37.059,155.656 38.000,154.920 38.000 C 154.634 38.000,154.400 38.180,154.400 38.400 C 154.400 38.620,154.122 38.800,153.783 38.800 C 153.444 38.800,152.780 39.160,152.308 39.600 C 151.836 40.040,151.213 40.400,150.925 40.400 C 150.636 40.400,150.400 40.580,150.400 40.800 C 150.400 41.020,150.122 41.200,149.783 41.200 C 149.444 41.200,148.949 41.377,148.683 41.593 C 148.417 41.810,146.670 43.009,144.800 44.259 C 142.930 45.508,141.310 46.645,141.200 46.785 C 141.090 46.924,140.370 47.473,139.600 48.004 C 138.830 48.535,137.750 49.427,137.200 49.986 C 136.650 50.545,135.484 51.537,134.609 52.191 C 132.693 53.622,128.934 57.399,126.891 59.946 C 126.073 60.966,125.088 62.091,124.702 62.447 C 124.316 62.803,124.000 63.206,124.000 63.342 C 124.000 63.613,123.063 64.809,121.800 66.150 C 121.360 66.618,120.745 67.495,120.432 68.100 C 120.120 68.705,119.737 69.200,119.581 69.200 C 119.425 69.200,119.073 69.740,118.800 70.400 C 118.527 71.060,118.167 71.600,118.000 71.600 C 117.833 71.600,117.473 72.140,117.200 72.800 C 116.927 73.460,116.545 74.000,116.351 74.000 C 116.158 74.000,116.000 74.360,116.000 74.800 C 116.000 75.240,115.848 75.600,115.663 75.600 C 115.477 75.600,114.895 76.455,114.368 77.500 C 113.842 78.545,113.309 79.490,113.185 79.600 C 112.422 80.277,108.400 90.104,108.400 91.291 C 108.400 91.681,108.220 92.000,108.000 92.000 C 107.780 92.000,107.600 92.540,107.600 93.200 C 107.600 93.860,107.420 94.400,107.200 94.400 C 106.980 94.400,106.800 94.940,106.800 95.600 C 106.800 96.260,106.620 96.800,106.400 96.800 C 106.180 96.800,106.000 97.430,106.000 98.200 C 106.000 98.970,105.820 99.600,105.600 99.600 C 105.380 99.600,105.200 100.320,105.200 101.200 C 105.200 102.080,105.020 102.800,104.800 102.800 C 104.580 102.800,104.400 103.599,104.400 104.576 C 104.400 105.553,104.220 106.464,104.000 106.600 C 103.780 106.736,103.600 107.816,103.600 109.000 C 103.600 110.184,103.420 111.264,103.200 111.400 C 102.979 111.536,102.800 113.330,102.800 115.400 C 102.800 117.470,102.621 119.264,102.400 119.400 C 102.168 119.543,102.000 121.730,102.000 124.600 C 102.000 127.470,102.168 129.657,102.400 129.800 C 102.625 129.939,102.800 131.871,102.800 134.224 C 102.800 136.741,102.959 138.400,103.200 138.400 C 103.422 138.400,103.600 139.467,103.600 140.800 C 103.600 142.133,103.778 143.200,104.000 143.200 C 104.220 143.200,104.400 144.100,104.400 145.200 C 104.400 146.300,104.580 147.200,104.800 147.200 C 105.020 147.200,105.200 147.920,105.200 148.800 C 105.200 149.680,105.380 150.400,105.600 150.400 C 105.820 150.400,106.000 150.929,106.000 151.576 C 106.000 152.223,106.180 152.864,106.400 153.000 C 106.620 153.136,106.800 153.777,106.800 154.424 C 106.800 155.071,106.980 155.600,107.200 155.600 C 107.420 155.600,107.600 156.140,107.600 156.800 C 107.600 157.460,107.741 158.000,107.913 158.000 C 108.085 158.000,108.472 158.835,108.773 159.856 C 109.509 162.346,111.616 167.254,113.215 170.200 C 113.931 171.520,114.716 173.004,114.959 173.497 C 115.201 173.990,115.535 174.395,115.700 174.397 C 115.865 174.399,116.000 174.720,116.000 175.112 C 116.000 175.503,116.360 176.083,116.800 176.400 C 117.240 176.717,117.600 177.257,117.600 177.600 C 117.600 177.943,117.960 178.483,118.400 178.800 C 118.840 179.117,119.200 179.657,119.200 180.000 C 119.200 180.343,119.560 180.883,120.000 181.200 C 120.440 181.517,120.800 181.980,120.800 182.229 C 120.800 182.478,121.340 183.246,122.000 183.937 C 122.660 184.628,123.200 185.374,123.200 185.596 C 123.200 185.818,123.380 186.000,123.600 186.000 C 123.820 186.000,124.000 186.270,124.000 186.600 C 124.000 186.930,124.315 187.199,124.700 187.198 C 125.085 187.196,127.290 189.131,129.600 191.498 C 145.174 207.452,156.486 212.715,165.130 208.028 C 175.378 202.472,174.848 190.336,164.043 183.113 C 150.493 174.055,139.277 160.363,135.608 148.400 C 135.304 147.410,134.932 146.420,134.782 146.200 C 134.631 145.980,134.385 145.260,134.236 144.600 C 134.086 143.940,133.782 142.680,133.560 141.800 C 129.519 125.793,131.071 110.324,138.219 95.368 C 143.896 83.491,154.584 71.932,165.700 65.648 C 166.525 65.182,167.785 64.472,168.500 64.071 C 179.635 57.830,198.301 54.895,211.400 57.326 C 239.846 62.606,262.139 84.280,267.165 111.541 C 267.579 113.790,267.768 113.876,271.478 113.517 C 273.195 113.351,277.300 113.022,280.600 112.786 C 288.387 112.230,296.142 111.541,296.417 111.381 C 296.537 111.312,296.485 110.118,296.303 108.727 C 296.120 107.337,295.869 105.435,295.745 104.500 C 295.621 103.565,295.358 102.800,295.160 102.800 C 294.962 102.800,294.800 102.080,294.800 101.200 C 294.800 100.320,294.620 99.600,294.400 99.600 C 294.180 99.600,294.000 98.970,294.000 98.200 C 294.000 97.430,293.820 96.800,293.600 96.800 C 293.380 96.800,293.200 96.260,293.200 95.600 C 293.200 94.940,293.020 94.400,292.800 94.400 C 292.580 94.400,292.400 93.860,292.400 93.200 C 292.400 92.540,292.220 92.000,292.000 92.000 C 291.780 92.000,291.600 91.548,291.600 90.995 C 291.600 90.442,291.429 89.677,291.221 89.295 C 291.012 88.913,290.174 86.980,289.357 85.000 C 288.541 83.020,287.577 80.950,287.215 80.400 C 286.854 79.850,286.118 78.545,285.580 77.500 C 285.042 76.455,284.466 75.600,284.301 75.600 C 284.135 75.600,284.000 75.240,284.000 74.800 C 284.000 74.360,283.842 74.000,283.649 74.000 C 283.455 74.000,283.073 73.460,282.800 72.800 C 282.527 72.140,282.145 71.600,281.951 71.600 C 281.758 71.600,281.600 71.328,281.600 70.996 C 281.600 70.664,281.060 69.828,280.400 69.137 C 279.740 68.446,279.200 67.704,279.200 67.488 C 279.200 67.271,278.876 66.803,278.481 66.447 C 278.086 66.091,277.325 65.170,276.790 64.400 C 276.255 63.630,275.453 62.620,275.009 62.156 C 274.564 61.692,273.480 60.444,272.600 59.383 C 270.393 56.722,267.200 53.541,265.349 52.159 C 264.497 51.523,263.350 50.545,262.800 49.986 C 262.250 49.427,261.170 48.535,260.400 48.004 C 259.630 47.473,258.910 46.926,258.800 46.788 C 258.690 46.651,257.070 45.519,255.200 44.273 C 253.330 43.027,251.583 41.826,251.317 41.604 C 251.051 41.382,250.556 41.200,250.217 41.200 C 249.878 41.200,249.600 41.020,249.600 40.800 C 249.600 40.580,249.330 40.400,249.000 40.400 C 248.670 40.400,248.400 40.220,248.400 40.000 C 248.400 39.780,248.130 39.600,247.800 39.600 C 247.470 39.600,247.200 39.420,247.200 39.200 C 247.200 38.980,246.840 38.800,246.400 38.800 C 245.960 38.800,245.600 38.620,245.600 38.400 C 245.600 38.180,245.240 38.000,244.800 38.000 C 244.360 38.000,244.000 37.820,244.000 37.600 C 244.000 37.380,243.640 37.200,243.200 37.200 C 242.760 37.200,242.400 37.020,242.400 36.800 C 242.400 36.580,242.051 36.400,241.624 36.400 C 241.197 36.400,240.736 36.220,240.600 36.000 C 240.464 35.780,240.003 35.600,239.576 35.600 C 239.149 35.600,238.800 35.420,238.800 35.200 C 238.800 34.980,238.451 34.800,238.024 34.800 C 237.597 34.800,237.136 34.620,237.000 34.400 C 236.864 34.180,236.313 34.000,235.776 34.000 C 235.239 34.000,234.800 33.820,234.800 33.600 C 234.800 33.380,234.451 33.200,234.024 33.200 C 233.597 33.200,233.136 33.020,233.000 32.800 C 232.864 32.580,232.324 32.400,231.800 32.400 C 231.276 32.400,230.736 32.220,230.600 32.000 C 230.464 31.780,229.834 31.600,229.200 31.600 C 228.566 31.600,227.936 31.420,227.800 31.200 C 227.664 30.980,227.034 30.800,226.400 30.800 C 225.766 30.800,225.136 30.620,225.000 30.400 C 224.864 30.180,224.169 30.000,223.456 30.000 C 222.743 30.000,221.989 29.838,221.780 29.641 C 221.571 29.444,220.680 29.179,219.800 29.053 C 218.920 28.926,217.030 28.634,215.600 28.404 C 209.078 27.351,199.343 27.047,191.400 27.647 M119.054 28.429 C 117.966 29.284,117.617 30.132,118.500 29.770 C 118.989 29.571,120.598 27.600,120.273 27.600 C 120.182 27.600,119.634 27.973,119.054 28.429 M113.900 33.185 C 113.515 33.560,113.203 34.032,113.206 34.234 C 113.209 34.435,113.344 34.405,113.506 34.166 C 113.668 33.927,114.138 33.547,114.551 33.321 C 114.965 33.095,115.145 32.819,114.951 32.707 C 114.758 32.594,114.285 32.809,113.900 33.185 M109.692 37.380 C 108.463 38.793,108.565 39.399,109.820 38.143 C 110.382 37.582,110.783 36.950,110.713 36.738 C 110.642 36.527,110.183 36.815,109.692 37.380 M104.562 43.138 C 104.719 43.392,104.657 43.600,104.424 43.600 C 104.191 43.600,104.000 43.780,104.000 44.000 C 104.000 44.612,104.685 44.476,104.940 43.813 C 105.064 43.490,104.965 43.102,104.721 42.951 C 104.452 42.785,104.389 42.859,104.562 43.138 M302.800 52.958 C 302.800 53.952,303.691 55.269,304.093 54.867 C 304.443 54.517,304.343 54.206,303.678 53.587 C 303.195 53.137,302.800 52.854,302.800 52.958 M308.800 63.557 C 308.800 63.754,309.081 64.022,309.425 64.154 C 309.787 64.293,309.931 64.607,309.767 64.897 C 309.546 65.287,309.597 65.294,309.996 64.926 C 310.411 64.542,310.390 64.332,309.883 63.826 C 309.179 63.122,308.800 63.028,308.800 63.557 M313.483 72.396 C 313.597 72.833,313.843 73.097,314.028 72.983 C 314.422 72.739,314.065 71.600,313.595 71.600 C 313.419 71.600,313.369 71.958,313.483 72.396 M316.261 78.500 C 316.598 80.317,317.398 81.135,317.510 79.777 C 317.559 79.185,317.428 78.859,317.197 79.002 C 316.851 79.215,316.610 78.401,316.753 77.500 C 316.779 77.335,316.625 77.200,316.410 77.200 C 316.187 77.200,316.123 77.757,316.261 78.500 M79.200 88.589 C 79.200 89.387,79.874 89.706,80.133 89.031 C 80.252 88.720,80.091 88.367,79.775 88.246 C 79.443 88.118,79.200 88.263,79.200 88.589 M76.232 101.460 C 75.893 102.344,76.177 102.550,76.762 101.845 C 77.046 101.503,77.086 101.177,76.861 101.038 C 76.654 100.910,76.371 101.099,76.232 101.460 M74.800 112.176 C 74.800 112.493,74.961 112.852,75.158 112.974 C 75.570 113.229,76.066 112.200,75.706 111.839 C 75.277 111.410,74.800 111.587,74.800 112.176 M75.505 118.400 C 75.030 120.013,75.129 122.364,75.635 121.495 C 75.861 121.107,75.990 120.027,75.923 119.095 C 75.818 117.643,75.758 117.544,75.505 118.400 M75.256 129.600 C 75.256 130.150,75.411 130.960,75.600 131.400 C 75.913 132.129,75.944 132.112,75.944 131.200 C 75.944 130.650,75.789 129.840,75.600 129.400 C 75.287 128.671,75.256 128.688,75.256 129.600 M43.709 195.600 C 43.709 196.590,43.787 196.995,43.882 196.500 C 43.978 196.005,43.978 195.195,43.882 194.700 C 43.787 194.205,43.709 194.610,43.709 195.600 M43.701 277.400 C 43.705 278.280,43.787 278.593,43.883 278.095 C 43.979 277.598,43.975 276.878,43.875 276.495 C 43.775 276.113,43.696 276.520,43.701 277.400 M80.500 284.276 C 80.885 284.376,81.515 284.376,81.900 284.276 C 82.285 284.175,81.970 284.093,81.200 284.093 C 80.430 284.093,80.115 284.175,80.500 284.276 M78.900 353.076 C 79.285 353.176,79.915 353.176,80.300 353.076 C 80.685 352.975,80.370 352.893,79.600 352.893 C 78.830 352.893,78.515 352.975,78.900 353.076 " stroke="none" fill="#fbe365" fill-rule="evenodd"></path><path id="path4" d="M193.000 57.019 C 182.412 58.234,171.154 61.996,164.738 66.461 C 164.154 66.867,163.577 67.200,163.456 67.200 C 163.335 67.200,162.642 67.605,161.916 68.100 C 150.560 75.847,141.301 87.379,136.303 100.000 C 136.085 100.550,135.748 101.313,135.553 101.695 C 135.359 102.077,135.200 102.741,135.200 103.171 C 135.200 103.601,135.041 104.051,134.846 104.171 C 134.651 104.292,134.393 104.887,134.271 105.495 C 134.149 106.103,133.860 107.410,133.629 108.400 C 131.785 116.297,131.162 129.252,132.339 135.200 C 133.971 143.445,135.318 147.912,137.345 151.800 C 145.934 168.274,169.326 158.960,162.666 141.717 C 159.473 133.448,158.003 122.854,159.800 121.057 C 160.156 120.701,160.400 119.723,160.400 118.652 C 160.400 117.659,160.580 116.736,160.800 116.600 C 161.020 116.464,161.200 115.733,161.200 114.976 C 161.200 114.219,161.380 113.600,161.600 113.600 C 161.820 113.600,162.000 113.060,162.000 112.400 C 162.000 111.740,162.180 111.200,162.400 111.200 C 162.620 111.200,162.800 110.761,162.800 110.224 C 162.800 109.687,162.980 109.136,163.200 109.000 C 163.420 108.864,163.600 108.403,163.600 107.976 C 163.600 107.549,163.780 107.200,164.000 107.200 C 164.220 107.200,164.400 106.930,164.400 106.600 C 164.400 106.270,164.535 106.000,164.701 106.000 C 164.866 106.000,165.451 105.146,166.001 104.103 C 166.550 103.060,167.675 101.508,168.500 100.655 C 169.325 99.802,170.000 98.941,170.000 98.741 C 170.000 98.337,173.436 94.800,173.829 94.800 C 173.967 94.800,174.583 94.260,175.200 93.600 C 175.817 92.940,176.609 92.400,176.960 92.400 C 177.312 92.400,177.600 92.249,177.600 92.064 C 177.600 91.880,178.318 91.385,179.195 90.964 C 180.073 90.544,180.793 90.065,180.795 89.900 C 180.798 89.735,181.160 89.600,181.600 89.600 C 182.040 89.600,182.400 89.420,182.400 89.200 C 182.400 88.980,182.760 88.800,183.200 88.800 C 183.640 88.800,184.000 88.620,184.000 88.400 C 184.000 88.180,184.439 88.000,184.976 88.000 C 185.513 88.000,186.064 87.820,186.200 87.600 C 186.336 87.380,186.887 87.200,187.424 87.200 C 187.961 87.200,188.400 87.020,188.400 86.800 C 188.400 86.580,189.019 86.400,189.776 86.400 C 190.533 86.400,191.264 86.220,191.400 86.000 C 191.536 85.780,192.537 85.600,193.624 85.600 C 194.711 85.600,195.600 85.420,195.600 85.200 C 195.600 84.958,197.333 84.800,200.000 84.800 C 202.667 84.800,204.400 84.958,204.400 85.200 C 204.400 85.420,205.289 85.600,206.376 85.600 C 207.463 85.600,208.464 85.780,208.600 86.000 C 208.736 86.220,209.366 86.400,210.000 86.400 C 210.634 86.400,211.264 86.580,211.400 86.800 C 211.536 87.020,212.076 87.200,212.600 87.200 C 213.124 87.200,213.664 87.380,213.800 87.600 C 213.936 87.820,214.487 88.000,215.024 88.000 C 215.561 88.000,216.000 88.180,216.000 88.400 C 216.000 88.620,216.360 88.800,216.800 88.800 C 217.240 88.800,217.600 88.980,217.600 89.200 C 217.600 89.420,217.945 89.600,218.367 89.600 C 218.788 89.600,219.193 89.735,219.267 89.900 C 219.519 90.468,222.682 91.984,223.005 91.692 C 223.183 91.532,223.199 91.625,223.041 91.900 C 222.881 92.178,222.959 92.400,223.216 92.400 C 223.471 92.400,224.183 92.940,224.800 93.600 C 225.417 94.260,226.033 94.800,226.171 94.800 C 226.557 94.800,230.000 98.334,230.000 98.730 C 230.000 98.923,230.495 99.606,231.100 100.248 C 231.705 100.889,232.455 101.906,232.768 102.507 C 233.080 103.108,233.463 103.600,233.619 103.600 C 233.775 103.600,234.127 104.140,234.400 104.800 C 234.673 105.460,235.055 106.000,235.249 106.000 C 235.442 106.000,235.600 106.270,235.600 106.600 C 235.600 106.930,235.780 107.200,236.000 107.200 C 236.220 107.200,236.400 107.639,236.400 108.176 C 236.400 108.713,236.580 109.264,236.800 109.400 C 237.020 109.536,237.200 109.997,237.200 110.424 C 237.200 110.851,237.380 111.200,237.600 111.200 C 237.820 111.200,238.000 111.740,238.000 112.400 C 238.000 113.060,238.180 113.600,238.400 113.600 C 238.620 113.600,238.800 114.320,238.800 115.200 C 238.800 116.080,238.980 116.800,239.200 116.800 C 239.420 116.800,239.600 117.700,239.600 118.800 C 239.600 120.414,239.735 120.812,240.300 120.863 C 241.394 120.962,241.614 120.921,244.800 120.034 C 246.450 119.575,249.150 118.823,250.800 118.364 C 252.450 117.904,254.340 117.377,255.000 117.192 C 255.660 117.007,257.640 116.470,259.400 116.000 C 261.160 115.530,263.230 114.965,264.000 114.745 C 264.770 114.524,265.805 114.246,266.300 114.126 C 267.750 113.773,267.489 111.585,265.115 104.200 C 261.451 92.806,254.488 81.939,246.113 74.548 C 244.401 73.037,242.910 71.709,242.800 71.598 C 242.034 70.823,236.880 67.200,236.544 67.200 C 236.423 67.200,235.846 66.867,235.262 66.461 C 225.122 59.404,207.169 55.393,193.000 57.019 " stroke="none" fill="#64b4fb" fill-rule="evenodd"/>
    </g>
</svg>